<?xml version="1.0" encoding="UTF-8"?>
<svg version="1.1" xmlns="http://www.w3.org/2000/svg" width="649" height="283">
<path d="M0 0 C0.82502518 0.00719055 1.65005035 0.0143811 2.50007629 0.02178955 C3.80261604 0.02135147 3.80261604 0.02135147 5.13146973 0.02090454 C8.01013582 0.02230116 10.8885451 0.03787791 13.76716614 0.05352783 C15.75970824 0.05725678 17.75225217 0.06010431 19.74479675 0.06210327 C24.99573303 0.06974901 30.24655912 0.08940556 35.49745178 0.11151123 C40.8529664 0.13194942 46.20849878 0.14110065 51.56404114 0.15118408 C62.07711045 0.17265058 72.59009789 0.20679784 83.10310364 0.24884033 C83.98421012 3.20415847 84.1527154 5.55489217 83.86531067 8.61846924 C83.78837982 9.47260406 83.71144897 10.32673889 83.63218689 11.20675659 C83.49790787 12.57723648 83.49790787 12.57723648 83.36091614 13.97540283 C83.27308868 14.91942963 83.18526123 15.86345642 83.09477234 16.83609009 C82.90792403 18.82847274 82.71775066 20.82054598 82.52449036 22.81231689 C82.22861472 25.86856107 81.94434345 28.92572226 81.66169739 31.98321533 C81.47878906 33.91817608 81.29521802 35.85307432 81.11091614 37.78790283 C81.02544525 38.70560455 80.93997437 39.62330627 80.85191345 40.56881714 C80.76867828 41.41664764 80.68544312 42.26447815 80.59968567 43.13800049 C80.52783051 43.88538483 80.45597534 44.63276917 80.38194275 45.40280151 C80.10310364 47.24884033 80.10310364 47.24884033 79.10310364 49.24884033 C78.80739044 51.652415 78.55966031 54.04069507 78.34919739 56.45196533 C78.2840242 57.16737488 78.21885101 57.88278442 78.15170288 58.61987305 C78.01449766 60.13615734 77.87929276 61.65262376 77.7459259 63.16925049 C77.54259756 65.47621729 77.33215634 67.78245136 77.12068176 70.08868408 C76.98809296 71.56390615 76.85591837 73.03916552 76.72419739 74.51446533 C76.6617131 75.19905823 76.59922882 75.88365112 76.53485107 76.58898926 C76.19586208 80.48842889 76.04273726 84.33527659 76.10310364 88.24884033 C77.50073876 87.02172279 78.89611836 85.79203615 80.29060364 84.56134033 C81.06790833 83.87684814 81.84521301 83.19235596 82.64607239 82.48712158 C87.25443504 78.2890424 91.56781322 73.77364147 95.95458984 69.34605408 C99.07415403 66.19980627 102.19895131 63.05877835 105.3240509 59.91802979 C106.97556528 58.25638041 108.62529142 56.5929519 110.27326965 54.92779541 C112.65330837 52.52363228 115.0396294 50.1258674 117.42732239 47.72930908 C118.16689682 46.97941208 118.90647125 46.22951508 119.66845703 45.45689392 C120.69511223 44.43001213 120.69511223 44.43001213 121.74250793 43.38238525 C122.34475693 42.77569504 122.94700592 42.16900482 123.56750488 41.54393005 C125.10310364 40.24884033 125.10310364 40.24884033 127.10310364 40.24884033 C127.43310364 39.25884033 127.76310364 38.26884033 128.10310364 37.24884033 C128.76310364 37.24884033 129.42310364 37.24884033 130.10310364 37.24884033 C130.43310364 36.25884033 130.76310364 35.26884033 131.10310364 34.24884033 C132.81013489 32.60040283 132.81013489 32.60040283 134.91560364 30.87384033 C137.43132021 28.757943 139.36626454 26.91455487 141.41560364 24.31134033 C141.97247864 23.63071533 142.52935364 22.95009033 143.10310364 22.24884033 C144.09310364 22.24884033 145.08310364 22.24884033 146.10310364 22.24884033 C146.47435364 21.35165283 146.47435364 21.35165283 146.85310364 20.43634033 C148.27313072 17.95129294 149.83016323 16.93521547 152.10310364 15.24884033 C152.43310364 14.25884033 152.76310364 13.26884033 153.10310364 12.24884033 C155.09000095 10.89605918 157.09055581 9.56315728 159.10310364 8.24884033 C159.76310364 7.25884033 160.42310364 6.26884033 161.10310364 5.24884033 C168.24283892 0.84441517 174.82112955 -0.47484184 183.08235168 -0.31878662 C184.11783646 -0.31951675 185.15332123 -0.32024689 186.22018433 -0.32099915 C189.60228565 -0.31754882 192.98296524 -0.27880812 196.36482239 -0.23944092 C198.72563932 -0.23010373 201.08646601 -0.2229919 203.44729614 -0.21800232 C209.63047001 -0.19900412 215.81304718 -0.14996483 221.99598694 -0.09448242 C228.31741771 -0.04313497 234.63894585 -0.02045524 240.96052551 0.00469971 C253.3416456 0.05816056 265.7223248 0.14338632 278.10310364 0.24884033 C278.43310364 1.23884033 278.76310364 2.22884033 279.10310364 3.24884033 C278.36704895 3.82891846 277.63099426 4.40899658 276.87263489 5.00665283 C270.72827557 9.75812307 270.72827557 9.75812307 265.41560364 15.37384033 C263.54446278 17.70012356 261.95337129 19.29964105 259.70075989 21.18243408 C256.09827716 24.29420775 252.70512194 27.57896204 249.36091614 30.96368408 C248.8620842 31.46807007 248.36325226 31.97245605 247.8493042 32.49212646 C245.77590615 34.59305162 243.70651779 36.69784268 241.64118958 38.80670166 C240.11456694 40.36333684 238.58193317 41.91384497 237.04841614 43.46368408 C236.14623352 44.38270508 235.2440509 45.30172607 234.31452942 46.24859619 C232.10310364 48.24884033 232.10310364 48.24884033 230.10310364 48.24884033 C229.87622864 48.80571533 229.64935364 49.36259033 229.41560364 49.93634033 C226.8028834 54.53970455 222.53119975 57.75713755 218.61091614 61.22930908 C212.85435874 66.40341988 207.40982208 71.8631561 201.97810364 77.37384033 C191.60472866 87.89688269 191.60472866 87.89688269 187.13435364 91.71368408 C183.79163348 94.57230962 180.67006062 97.61853161 177.57966614 100.74493408 C177.10230011 101.22780884 176.62493408 101.71068359 176.13310242 102.20819092 C174.15609811 104.21292127 172.18299263 106.221403 170.21394348 108.23394775 C168.75681921 109.72108415 167.29368606 111.20209038 165.82966614 112.68243408 C164.96937805 113.55956055 164.10908997 114.43668701 163.22273254 115.34039307 C161.10310364 117.24884033 161.10310364 117.24884033 159.10310364 117.24884033 C157.60497452 119.81341822 157.60497452 119.81341822 157.10310364 123.24884033 C158.34311735 126.19465971 160.26025734 128.6512605 162.10310364 131.24884033 C163.07502563 132.8448106 164.03290767 134.44939801 164.97810364 136.06134033 C167.71685983 140.66614024 170.62194379 145.1465548 173.58747864 149.60821533 C175.20023498 152.41806917 176.17914177 155.15085054 177.10310364 158.24884033 C177.76310364 158.24884033 178.42310364 158.24884033 179.10310364 158.24884033 C180.58357239 160.45196533 180.58357239 160.45196533 182.29060364 163.49884033 C182.91193176 164.59454346 183.53325989 165.69024658 184.17341614 166.81915283 C184.81021301 167.95094971 185.44700989 169.08274658 186.10310364 170.24884033 C187.28649987 172.29288837 188.47386578 174.33464444 189.66560364 176.37384033 C190.24181458 177.36126221 190.81802551 178.34868408 191.41169739 179.36602783 C195.5355499 186.39467254 199.7620206 193.35256285 204.10310364 200.24884033 C205.04106684 201.74855073 205.97857687 203.24854467 206.91560364 204.74884033 C207.33454895 205.41915283 207.75349426 206.08946533 208.18513489 206.78009033 C208.48806458 207.26477783 208.79099426 207.74946533 209.10310364 208.24884033 C213.5223548 200.73720994 217.72992984 193.32095239 221.09529114 185.26055908 C222.10310364 183.24884033 222.10310364 183.24884033 224.10310364 182.24884033 C224.59199124 180.57445275 225.07464935 178.89786179 225.51765442 177.21075439 C226.47474019 174.00343945 228.00943263 171.08568966 229.54060364 168.12384033 C229.87898254 167.45658936 230.21736145 166.78933838 230.56599426 166.10186768 C232.69852994 161.91757419 234.88321896 157.76131947 237.07575989 153.60821533 C237.82804871 152.18146484 237.82804871 152.18146484 238.59553528 150.72589111 C239.59151905 148.84166724 240.59193052 146.95977639 241.59700012 145.0803833 C242.28064636 143.79091797 242.28064636 143.79091797 242.97810364 142.47540283 C243.38802551 141.70792725 243.79794739 140.94045166 244.22029114 140.14971924 C245.2435083 138.29583266 245.2435083 138.29583266 245.10310364 136.24884033 C245.76310364 136.24884033 246.42310364 136.24884033 247.10310364 136.24884033 C247.2696344 135.1744873 247.2696344 135.1744873 247.43952942 134.07843018 C248.15342274 131.03427138 249.24529639 128.72816332 250.72029114 125.97540283 C251.50726379 124.49040283 251.50726379 124.49040283 252.31013489 122.97540283 C253.13577942 121.44012939 253.13577942 121.44012939 253.97810364 119.87384033 C258.87859761 110.72201147 258.87859761 110.72201147 263.10310364 101.24884033 C263.76310364 101.24884033 264.42310364 101.24884033 265.10310364 101.24884033 C265.29646301 100.65716064 265.48982239 100.06548096 265.68904114 99.45587158 C267.04725083 95.33417583 268.42360948 91.25378793 270.10310364 87.24884033 C270.76310364 87.24884033 271.42310364 87.24884033 272.10310364 87.24884033 C272.29646301 86.65716064 272.48982239 86.06548096 272.68904114 85.45587158 C274.04725083 81.33417583 275.42360948 77.25378793 277.10310364 73.24884033 C277.76310364 73.24884033 278.42310364 73.24884033 279.10310364 73.24884033 C279.29646301 72.65716064 279.48982239 72.06548096 279.68904114 71.45587158 C281.04725083 67.33417583 282.42360948 63.25378793 284.10310364 59.24884033 C284.76310364 59.24884033 285.42310364 59.24884033 286.10310364 59.24884033 C286.76310364 56.27884033 287.42310364 53.30884033 288.10310364 50.24884033 C288.76310364 50.24884033 289.42310364 50.24884033 290.10310364 50.24884033 C290.43310364 48.59884033 290.76310364 46.94884033 291.10310364 45.24884033 C291.76310364 45.24884033 292.42310364 45.24884033 293.10310364 45.24884033 C293.76310364 42.27884033 294.42310364 39.30884033 295.10310364 36.24884033 C295.76310364 36.24884033 296.42310364 36.24884033 297.10310364 36.24884033 C297.43310364 34.59884033 297.76310364 32.94884033 298.10310364 31.24884033 C298.76310364 31.24884033 299.42310364 31.24884033 300.10310364 31.24884033 C300.76310364 28.27884033 301.42310364 25.30884033 302.10310364 22.24884033 C302.76310364 22.24884033 303.42310364 22.24884033 304.10310364 22.24884033 C304.35060364 21.71259033 304.59810364 21.17634033 304.85310364 20.62384033 C305.26560364 19.84009033 305.67810364 19.05634033 306.10310364 18.24884033 C306.57747864 17.34134033 307.05185364 16.43384033 307.54060364 15.49884033 C313.05898794 7.44608695 322.83911442 2.47359105 332.10310364 0.24884033 C338.67366749 -0.47409418 345.32016024 -0.26681424 351.91950989 -0.21209717 C353.82713699 -0.20970913 355.73476649 -0.20880818 357.64239502 -0.20932007 C361.61716171 -0.20620871 365.59156342 -0.18976073 369.5662384 -0.16278076 C374.66750779 -0.1285942 379.76838136 -0.12115898 384.86975193 -0.12267113 C388.79787999 -0.1221286 392.7259211 -0.11118369 396.65402031 -0.09666824 C398.53634421 -0.09029769 400.41867794 -0.08636075 402.30101204 -0.08488083 C404.91954173 -0.08056233 407.53764383 -0.06309923 410.15608215 -0.04168701 C411.32561935 -0.04304657 411.32561935 -0.04304657 412.51878357 -0.04443359 C417.87412647 0.01986316 417.87412647 0.01986316 420.10310364 2.24884033 C420.89392615 4.87529466 421.59174749 7.460572 422.22810364 10.12384033 C422.50074036 11.20471924 422.50074036 11.20471924 422.77888489 12.30743408 C423.62167301 15.74829087 424.10310364 18.68565917 424.10310364 22.24884033 C424.76310364 22.24884033 425.42310364 22.24884033 426.10310364 22.24884033 C426.269151 22.89844727 426.43519836 23.5480542 426.60627747 24.21734619 C427.37271885 27.2078766 428.14412912 30.19710455 428.91560364 33.18634033 C429.30715637 34.71871338 429.30715637 34.71871338 429.70661926 36.28204346 C431.0988376 41.66185013 432.61501412 46.94135331 434.42219543 52.19586182 C435.4734962 55.36559583 436.27937599 58.5747771 437.10310364 61.81134033 C438.29545817 66.41229213 439.61760084 70.86731681 441.37654114 75.28399658 C443.53954671 81.13341488 445.34034261 86.97895308 445.10310364 93.24884033 C445.76310364 93.24884033 446.42310364 93.24884033 447.10310364 93.24884033 C447.60746058 95.18521073 448.10644237 97.12298179 448.60310364 99.06134033 C449.02075989 100.6797583 449.02075989 100.6797583 449.44685364 102.33087158 C450.10310364 105.24884033 450.10310364 105.24884033 450.10310364 108.24884033 C451.23747864 107.65071533 452.37185364 107.05259033 453.54060364 106.43634033 C458.73034821 103.84146805 464.23198478 101.24884033 470.10310364 101.24884033 C470.10310364 100.58884033 470.10310364 99.92884033 470.10310364 99.24884033 C471.21427551 98.86212158 472.32544739 98.47540283 473.47029114 98.07696533 C480.81991883 95.507281 488.14101299 92.94124908 495.31794739 89.91290283 C497.10310364 89.24884033 497.10310364 89.24884033 499.10310364 89.24884033 C498.9187677 88.59657471 498.73443176 87.94430908 498.54450989 87.27227783 C497.97375781 83.36287865 498.49496628 79.75091569 499.04060364 75.87384033 C499.76141373 70.6096015 500.16939273 65.57848355 500.10310364 60.24884033 C500.40813795 58.24432913 500.74391043 56.24435815 501.10310364 54.24884033 C501.89591743 47.93072426 502.48133399 41.58559911 503.10310364 35.24884033 C503.76310364 35.24884033 504.42310364 35.24884033 505.10310364 35.24884033 C505.04122864 33.70196533 505.04122864 33.70196533 504.97810364 32.12384033 C505.09885513 28.38054406 505.75182382 25.71149486 507.10310364 22.24884033 C507.76310364 22.24884033 508.42310364 22.24884033 509.10310364 22.24884033 C509.35060364 21.71259033 509.59810364 21.17634033 509.85310364 20.62384033 C515.15322706 10.55360583 523.21724473 5.51495184 533.68797302 1.27661133 C539.80540747 -0.56440807 545.90834738 -0.38531542 552.23982239 -0.27459717 C553.65516331 -0.26778961 555.0705157 -0.26307837 556.48587036 -0.26034546 C560.16994619 -0.24707405 563.85302728 -0.20296764 567.53675842 -0.152771 C570.56082122 -0.11706565 573.58479035 -0.10423756 576.60902691 -0.09235191 C580.21518657 -0.07761766 583.8212426 -0.05241216 587.42732239 -0.02459717 C588.11513983 -0.01968639 588.80295727 -0.01477562 589.51161766 -0.00971603 C591.44280396 0.00648027 593.37391508 0.03100465 595.30500793 0.05596924 C596.40354599 0.06882965 597.50208405 0.08169006 598.63391113 0.09494019 C601.10310364 0.24884033 601.10310364 0.24884033 602.10310364 1.24884033 C602.34190961 8.77122839 602.34190961 8.77122839 601.10310364 11.24884033 C600.91114075 12.67526127 600.76922048 14.10860309 600.65412903 15.54327393 C600.58057693 16.43114594 600.50702484 17.31901794 600.4312439 18.23379517 C600.35518417 19.19524445 600.27912445 20.15669373 600.20075989 21.14727783 C600.03106487 23.17333851 599.8611357 25.19937959 599.69099426 27.22540283 C599.42681743 30.42698031 599.16521142 33.62872385 598.90803528 36.83087158 C598.65861668 39.9161487 598.39907692 43.00044637 598.13825989 46.08477783 C598.0642244 47.04217865 597.9901889 47.99957947 597.91390991 48.98599243 C597.79885353 50.32725693 597.79885353 50.32725693 597.68147278 51.69561768 C597.61787064 52.48012299 597.55426849 53.2646283 597.48873901 54.07290649 C597.07087849 56.43066957 596.27104128 58.17019347 595.10310364 60.24884033 C594.11310364 60.24884033 593.12310364 60.24884033 592.10310364 60.24884033 C591.77310364 60.90884033 591.44310364 61.56884033 591.10310364 62.24884033 C589.78310364 62.24884033 588.46310364 62.24884033 587.10310364 62.24884033 C587.10310364 62.90884033 587.10310364 63.56884033 587.10310364 64.24884033 C586.13630676 64.62395752 585.16950989 64.99907471 584.17341614 65.38555908 C582.85821699 65.90224446 581.54311828 66.41918554 580.22810364 66.93634033 C579.59646301 67.18061768 578.96482239 67.42489502 578.31404114 67.67657471 C573.65495693 69.51691297 569.21380529 71.66245628 564.74909973 73.9307251 C560.17683389 76.20842055 555.51218002 78.28109586 550.85310364 80.37384033 C548.9515744 81.22952849 547.05051881 82.08627012 545.14997864 82.94415283 C544.27148254 83.34021729 543.39298645 83.73628174 542.48786926 84.14434814 C540.50652766 85.06199653 538.5576256 86.04930093 536.61872864 87.05352783 C534.10310364 88.24884033 534.10310364 88.24884033 531.10310364 88.24884033 C530.77310364 88.90884033 530.44310364 89.56884033 530.10310364 90.24884033 C527.78530497 91.33047971 525.4765802 92.30106983 523.10310364 93.24884033 C516.29809383 96.02677584 509.65367223 98.91609491 503.10310364 102.24884033 C500.04770361 103.6067959 498.45560033 104.24884033 495.10310364 104.24884033 C494.77310364 104.90884033 494.44310364 105.56884033 494.10310364 106.24884033 C492.29813355 107.08393201 490.45745723 107.84254418 488.60310364 108.56134033 C484.73915629 110.11422697 481.07933475 111.72030291 477.47810364 113.81134033 C473.6698928 116.00996565 469.80300898 117.64179478 465.70466614 119.22149658 C459.32734479 121.73986822 453.14550044 124.69679204 447.04060364 127.81134033 C442.94002702 129.89087206 438.77404411 131.61495525 434.48982239 133.27618408 C431.52414058 134.48478436 428.70168655 135.90727771 425.85310364 137.36602783 C422.4792976 139.06799248 419.90159291 140.24884033 416.10310364 140.24884033 C416.10310364 140.90884033 416.10310364 141.56884033 416.10310364 142.24884033 C414.64904114 142.86759033 414.64904114 142.86759033 413.16560364 143.49884033 C410.44656625 144.6633683 407.74042941 145.85299134 405.04060364 147.06134033 C401.06099509 148.83989826 397.05349396 150.54679177 393.04060364 152.24884033 C389.13853687 153.9097416 385.30180066 155.60238355 381.54060364 157.56134033 C378.577526 159.01594208 376.29723217 159.66808969 373.10310364 160.24884033 C372.77310364 160.90884033 372.44310364 161.56884033 372.10310364 162.24884033 C369.51184265 163.40581302 366.93280509 164.47152088 364.29060364 165.49884033 C359.14595348 167.55445732 354.09766045 169.65084634 349.16560364 172.18634033 C344.02585219 174.82780034 338.81067486 177.25635415 333.54060364 179.62384033 C332.75371155 179.98211914 331.96681946 180.34039795 331.15608215 180.70953369 C330.41543518 181.03961426 329.67478821 181.36969482 328.91169739 181.70977783 C328.24968323 182.00674561 327.58766907 182.30371338 326.90559387 182.60968018 C325.10310364 183.24884033 325.10310364 183.24884033 322.10310364 183.24884033 C322.10310364 183.90884033 322.10310364 184.56884033 322.10310364 185.24884033 C320.64904114 185.43446533 320.64904114 185.43446533 319.16560364 185.62384033 C318.15497864 185.83009033 317.14435364 186.03634033 316.10310364 186.24884033 C315.77310364 186.90884033 315.44310364 187.56884033 315.10310364 188.24884033 C313.19977991 188.98121076 311.29335903 189.70668032 309.37117004 190.38800049 C304.95917661 192.06256334 300.83761162 194.36302393 296.66365051 196.55157471 C291.41424116 199.24884033 291.41424116 199.24884033 288.10310364 199.24884033 C287.77310364 199.90884033 287.44310364 200.56884033 287.10310364 201.24884033 C285.10310364 201.58217367 283.10310364 201.915507 281.10310364 202.24884033 C280.77310364 202.90884033 280.44310364 203.56884033 280.10310364 204.24884033 C277.88825989 205.31915283 277.88825989 205.31915283 275.16560364 206.37384033 C274.2697052 206.72704346 273.37380676 207.08024658 272.45075989 207.44415283 C270.10310364 208.24884033 270.10310364 208.24884033 268.10310364 208.24884033 C267.77310364 208.90884033 267.44310364 209.56884033 267.10310364 210.24884033 C264.78058128 211.31789219 262.47440079 212.30259581 260.10310364 213.24884033 C251.02616093 217.0973778 242.03860943 221.07966144 233.10310364 225.24884033 C230.93689497 226.24983206 228.77022694 227.24983031 226.60310364 228.24884033 C223.25747291 229.79172829 219.9131058 231.33711366 216.57185364 232.88946533 C214.85482239 233.68610596 214.85482239 233.68610596 213.10310364 234.49884033 C212.07185364 234.97837158 211.04060364 235.45790283 209.97810364 235.95196533 C202.6693687 239.24884033 202.6693687 239.24884033 199.10310364 239.24884033 C199.10310364 239.90884033 199.10310364 240.56884033 199.10310364 241.24884033 C198.11310364 241.24884033 197.12310364 241.24884033 196.10310364 241.24884033 C196.02060364 241.90497314 195.93810364 242.56110596 195.85310364 243.23712158 C194.8431129 247.29286563 193.01757595 250.7379279 191.10310364 254.43634033 C190.73443176 255.16014893 190.36575989 255.88395752 189.98591614 256.62969971 C189.02983246 258.50522882 188.06692755 260.3772771 187.10310364 262.24884033 C186.77310364 262.90884033 186.44310364 263.56884033 186.10310364 264.24884033 C186.76310364 264.24884033 187.42310364 264.24884033 188.10310364 264.24884033 C188.43310364 263.58884033 188.76310364 262.92884033 189.10310364 262.24884033 C190.81013489 261.24884033 190.81013489 261.24884033 192.91560364 260.24884033 C193.60267395 259.91884033 194.28974426 259.58884033 194.99763489 259.24884033 C195.69243958 258.91884033 196.38724426 258.58884033 197.10310364 258.24884033 C197.78759583 257.87759033 198.47208801 257.50634033 199.17732239 257.12384033 C201.10310364 256.24884033 201.10310364 256.24884033 204.10310364 256.24884033 C204.10310364 255.58884033 204.10310364 254.92884033 204.10310364 254.24884033 C204.8675177 253.89692627 205.63193176 253.54501221 206.41950989 253.18243408 C209.34298455 251.8350324 212.26536107 250.48528104 215.18708801 249.13409424 C216.4353721 248.55735136 217.68405098 247.98146195 218.93318176 247.40655518 C229.42262463 242.57767735 239.75310735 237.4676103 250.05915833 232.26055908 C261.85086175 226.30838702 273.76178876 220.63101343 285.71980286 215.02130127 C295.72102879 210.32628642 305.62069011 205.52914106 315.35139465 200.29400635 C319.90796952 197.85105305 324.51423311 195.63346412 329.24763489 193.54962158 C332.83139858 191.91707259 336.33866121 190.14967308 339.85310364 188.37384033 C345.81616762 185.36359545 351.8249722 182.48078349 357.88825989 179.67852783 C361.23761286 178.12777032 364.56103895 176.54265513 367.85310364 174.87384033 C373.55310445 171.98558489 379.34052923 169.28368586 385.12214661 166.56378174 C390.16830112 164.18457954 395.16768281 161.74220048 400.09529114 159.12384033 C402.4028483 158.11821231 404.6265861 157.66303142 407.10310364 157.24884033 C407.10310364 156.58884033 407.10310364 155.92884033 407.10310364 155.24884033 C409.0595976 154.41119766 411.0183592 153.57884974 412.97810364 152.74884033 C414.06865051 152.28477783 415.15919739 151.82071533 416.28279114 151.34259033 C419.10310364 150.24884033 419.10310364 150.24884033 421.10310364 150.24884033 C421.10310364 149.58884033 421.10310364 148.92884033 421.10310364 148.24884033 C421.74892395 148.00391846 422.39474426 147.75899658 423.06013489 147.50665283 C429.87058498 144.80483269 436.2757094 141.64668671 442.72810364 138.18634033 C459.4162456 129.24884033 459.4162456 129.24884033 464.10310364 129.24884033 C464.10310364 128.58884033 464.10310364 127.92884033 464.10310364 127.24884033 C464.91650208 126.92012939 465.72990051 126.59141846 466.56794739 126.25274658 C474.28004807 123.05166092 481.64297035 119.46288715 488.99128723 115.49932861 C493.67003895 112.9831055 498.38943384 110.69033064 503.25154114 108.54571533 C506.80902412 106.92779157 510.29876899 105.19060534 513.79060364 103.43634033 C514.47364563 103.09320801 515.15668762 102.75007568 515.86042786 102.39654541 C518.5897733 101.0229303 521.31736435 99.64586001 524.04450989 98.2678833 C535.64487885 92.41112618 547.35849997 86.80987466 559.10310364 81.24884033 C562.79151225 79.50074881 566.47890217 77.75052908 570.16560364 75.99884033 C571.04160217 75.58343994 571.91760071 75.16803955 572.82014465 74.74005127 C578.57845022 72.00119095 584.27637835 69.17242664 589.92341614 66.20977783 C592.10310364 65.24884033 592.10310364 65.24884033 595.10310364 65.24884033 C595.12996917 67.22793431 595.14943739 69.20713004 595.16560364 71.18634033 C595.1772052 72.28848877 595.18880676 73.39063721 595.20075989 74.52618408 C595.10310364 77.24884033 595.10310364 77.24884033 594.10310364 78.24884033 C593.836341 80.32034139 593.63310319 82.40004734 593.45466614 84.48101807 C593.39760498 85.13144073 593.34054382 85.7818634 593.28175354 86.45199585 C593.15808796 87.86834608 593.03651725 89.28488038 592.91676331 90.7015667 C592.72733648 92.9415056 592.53241784 95.18090514 592.33601379 97.42024231 C591.92001519 102.17517904 591.51120664 106.9307204 591.10310364 111.68634033 C590.63026649 117.191872 590.15452674 122.69712665 589.6721344 128.20182991 C589.47989504 130.41183986 589.29262479 132.62223553 589.10554504 134.83268738 C588.98777844 136.18423475 588.86978924 137.53576274 588.75154114 138.88726807 C588.6501886 140.07005844 588.54883606 141.25284882 588.44441223 142.47148132 C588.10310364 145.24884033 588.10310364 145.24884033 587.10310364 147.24884033 C586.84335608 149.32849296 586.63677515 151.41486245 586.45466614 153.50274658 C586.33784485 154.81750977 586.22102356 156.13227295 586.10066223 157.48687744 C586.03997559 158.19150116 585.97928894 158.89612488 585.91676331 159.62210083 C585.72698798 161.82428662 585.53217995 164.025975 585.33601379 166.2276001 C584.92052472 170.90095389 584.51136877 175.57485065 584.10310364 180.24884033 C583.63010691 185.66390432 583.15454601 191.07871635 582.6721344 196.49295044 C582.47996552 198.66529296 582.29267869 200.838022 582.10554504 203.01080322 C581.98872375 204.32556641 581.87190247 205.64032959 581.75154114 206.99493408 C581.6501886 208.15694336 581.54883606 209.31895264 581.44441223 210.51617432 C581.10310364 213.24884033 581.10310364 213.24884033 580.10310364 215.24884033 C579.87524877 216.93580301 579.69818778 218.62975037 579.54646301 220.32525635 C579.40126221 221.911838 579.40126221 221.911838 579.25312805 223.5304718 C579.1520575 224.67632248 579.05098694 225.82217316 578.94685364 227.00274658 C578.78606323 228.7595298 578.78606323 228.7595298 578.62202454 230.55180359 C578.16179025 235.58039089 577.71085074 240.60979923 577.25984192 245.63922119 C576.92998744 249.30240428 576.59485524 252.9650771 576.25935364 256.62774658 C576.15828308 257.77562149 576.05721252 258.9234964 575.95307922 260.1061554 C575.80787842 261.6880088 575.80787842 261.6880088 575.65974426 263.30181885 C575.57615662 264.23510513 575.49256897 265.16839142 575.40644836 266.12995911 C575.10310364 268.24884033 575.10310364 268.24884033 574.10310364 269.24884033 C572.07108629 269.35659202 570.03527603 269.39297583 568.00042725 269.40274048 C567.35593252 269.40712273 566.7114378 269.41150499 566.04741293 269.41602004 C563.87188187 269.4294528 561.69639135 269.43559699 559.52082825 269.44171143 C557.96717646 269.44960919 556.41352652 269.45787794 554.85987854 269.4664917 C549.74175276 269.49276059 544.62361862 269.50802921 539.50544739 269.52227783 C537.74456336 269.52763647 535.9836794 269.53301398 534.22279549 269.53841019 C526.89600172 269.56005056 519.5692102 269.57878566 512.24239254 269.59003258 C501.74037694 269.60625828 491.23873218 269.63938908 480.7368564 269.69643342 C473.35503127 269.73516188 465.97330518 269.754669 458.59138113 269.75995314 C454.18226258 269.7636041 449.7735391 269.77559685 445.36453056 269.80805588 C441.21200513 269.83818596 437.06011272 269.84443099 432.90750122 269.83267212 C431.38697001 269.83245176 429.86640905 269.84072577 428.34597969 269.85832596 C414.56495221 270.00910733 414.56495221 270.00910733 408.40625858 265.7127018 C406.83972241 263.95297864 406.48821058 262.54797741 406.10310364 260.24884033 C405.44310364 260.24884033 404.78310364 260.24884033 404.10310364 260.24884033 C403.64428137 258.26978696 403.18607456 256.29059089 402.72810364 254.31134033 C402.45353333 253.12669189 402.17896301 251.94204346 401.89607239 250.72149658 C401.25215727 247.90159244 400.63910338 245.07854713 400.04060364 242.24884033 C399.53374459 239.93655774 398.98605825 237.95622687 398.10310364 235.74884033 C396.01548292 230.52978853 394.73949304 224.88480456 395.10310364 219.24884033 C394.44310364 218.91884033 393.78310364 218.58884033 393.10310364 218.24884033 C392.68904114 215.30743408 392.68904114 215.30743408 392.47810364 211.68634033 C392.3659552 209.89003174 392.3659552 209.89003174 392.25154114 208.05743408 C392.20255676 207.13059814 392.15357239 206.20376221 392.10310364 205.24884033 C391.44310364 205.24884033 390.78310364 205.24884033 390.10310364 205.24884033 C389.44310364 203.26884033 388.78310364 201.28884033 388.10310364 199.24884033 C387.34384583 199.67036377 386.58458801 200.09188721 385.80232239 200.52618408 C384.8084552 201.07403564 383.81458801 201.62188721 382.79060364 202.18634033 C381.80447083 202.73161377 380.81833801 203.27688721 379.80232239 203.83868408 C377.10310364 205.24884033 377.10310364 205.24884033 374.10310364 206.24884033 C373.77310364 206.90884033 373.44310364 207.56884033 373.10310364 208.24884033 C367.68002671 211.24884033 367.68002671 211.24884033 365.10310364 211.24884033 C365.10310364 211.90884033 365.10310364 212.56884033 365.10310364 213.24884033 C363.48060423 214.08703191 361.85501867 214.91925193 360.22810364 215.74884033 C359.32318176 216.21290283 358.41825989 216.67696533 357.48591614 217.15509033 C355.10310364 218.24884033 355.10310364 218.24884033 353.10310364 218.24884033 C353.10310364 218.90884033 353.10310364 219.56884033 353.10310364 220.24884033 C352.44310364 220.24884033 351.78310364 220.24884033 351.10310364 220.24884033 C350.77310364 220.90884033 350.44310364 221.56884033 350.10310364 222.24884033 C348.53967442 223.18689786 346.96889497 224.11390255 345.37263489 224.99493408 C337.1647013 229.52978207 329.16159602 234.41335989 321.18904114 239.34649658 C317.71144574 241.49028008 314.20879892 243.58901892 310.70075989 245.68243408 C307.63136419 247.53330277 304.58696126 249.4228104 301.54060364 251.31134033 C287.02788771 260.24884033 287.02788771 260.24884033 284.10310364 260.24884033 C284.10310364 260.90884033 284.10310364 261.56884033 284.10310364 262.24884033 C283.3206427 262.67036377 282.53818176 263.09188721 281.73200989 263.52618408 C280.21413879 264.34796143 280.21413879 264.34796143 278.66560364 265.18634033 C277.15159973 266.00425049 277.15159973 266.00425049 275.60700989 266.83868408 C273.23639871 268.02583501 273.23639871 268.02583501 272.10310364 269.24884033 C270.46610297 269.35580265 268.82449832 269.39292506 267.18403625 269.40274048 C266.11865631 269.41134094 265.05327637 269.41994141 263.95561218 269.42880249 C262.77645233 269.43306244 261.59729248 269.43732239 260.38240051 269.44171143 C259.14825409 269.44988892 257.91410767 269.45806641 256.64256287 269.4664917 C252.53566314 269.4914148 248.42880043 269.50803251 244.32185364 269.52227783 C242.90769443 269.52763717 241.49353529 269.53301468 240.07937622 269.53841019 C234.1928928 269.56005349 228.30641216 269.5787864 222.41989899 269.59003258 C213.99031028 269.6062429 205.56118472 269.63933214 197.13177061 269.69643342 C191.20299646 269.73521963 185.27434566 269.75467597 179.34544802 269.75995314 C175.80648395 269.76359728 172.2680133 269.77551534 168.72918701 269.80805588 C164.77231017 269.84391478 160.81600639 269.83974357 156.85896301 269.83233643 C155.69599701 269.84874176 154.53303101 269.86514709 153.33482361 269.88204956 C146.09042701 269.82665822 140.96177412 268.63915929 135.10310364 264.24884033 C132.90388489 261.92462158 132.90388489 261.92462158 131.41560364 259.56134033 C130.85357239 258.68864502 130.29154114 257.81594971 129.71247864 256.91680908 C128.91583801 255.59616455 128.91583801 255.59616455 128.10310364 254.24884033 C127.61325989 253.44059814 127.12341614 252.63235596 126.61872864 251.79962158 C125.63918019 250.16440764 124.66665768 248.52496694 123.70075989 246.88165283 C121.91779989 243.94347426 120.02373934 241.09881589 118.10310364 238.24884033 C108.84675846 224.4798048 108.84675846 224.4798048 107.10310364 219.24884033 C106.44310364 218.91884033 105.78310364 218.58884033 105.10310364 218.24884033 C103.83803754 216.30544693 102.63834274 214.3190792 101.47810364 212.31134033 C100.84646301 211.22981689 100.21482239 210.14829346 99.56404114 209.03399658 C98.10310364 206.24884033 98.10310364 206.24884033 98.10310364 204.24884033 C97.11310364 203.91884033 96.12310364 203.58884033 95.10310364 203.24884033 C94.39929206 201.26160765 93.73192254 199.26106081 93.10310364 197.24884033 C92.44310364 196.91884033 91.78310364 196.58884033 91.10310364 196.24884033 C88.10310364 190.82576341 88.10310364 190.82576341 88.10310364 188.24884033 C82.47496591 192.55463891 77.45595397 196.65231847 73.10310364 202.24884033 C70.67277906 204.80068114 68.43989416 207.02057686 65.52107239 208.99884033 C62.42479306 211.88003079 62.31374636 213.45505178 61.91560364 217.62384033 C61.77896301 218.93352783 61.64232239 220.24321533 61.50154114 221.59259033 C61.36650465 223.14448175 61.23390461 224.69658618 61.10310364 226.24884033 C60.83951897 229.20424529 60.57363401 232.15943515 60.30696106 235.11456299 C60.13048322 237.10839054 59.96128097 239.10287648 59.79963684 241.09796143 C59.72317932 242.01142334 59.6467218 242.92488525 59.56794739 243.86602783 C59.46921326 245.09748535 59.46921326 245.09748535 59.3684845 246.3538208 C59.10310364 248.24884033 59.10310364 248.24884033 58.10310364 249.24884033 C57.87686843 250.73321842 57.70897399 252.22661459 57.56794739 253.72149658 C57.48093567 254.62061768 57.39392395 255.51973877 57.30427551 256.44610596 C57.21726379 257.3916333 57.13025208 258.33716064 57.04060364 259.31134033 C56.94972473 260.26073486 56.85884583 261.21012939 56.76521301 262.18829346 C56.54053866 264.54146168 56.32002182 266.89494652 56.10310364 269.24884033 C46.16719481 269.29522509 36.23131184 269.33074076 26.2953167 269.35246468 C21.68140202 269.3628922 17.06756155 269.37703259 12.45368958 269.39971924 C7.99924619 269.42148436 3.54487409 269.43341672 -0.90961838 269.43859482 C-2.60723365 269.44228398 -4.30484512 269.449488 -6.00242996 269.46030045 C-8.38416662 269.47486417 -10.76561047 269.47681624 -13.14738464 269.47589111 C-13.84581985 269.48308167 -14.54425507 269.49027222 -15.26385498 269.49768066 C-19.51208097 269.47987988 -22.9451488 268.79741071 -26.89689636 267.24884033 C-26.89689636 266.58884033 -26.89689636 265.92884033 -26.89689636 265.24884033 C-27.55689636 265.24884033 -28.21689636 265.24884033 -28.89689636 265.24884033 C-32.71143636 260.71243933 -33.45434732 257.06496619 -33.20939636 251.31134033 C-33.19972839 250.63393799 -33.19006042 249.95653564 -33.18009949 249.25860596 C-33.08300491 244.85557779 -32.55349142 240.59751993 -31.89689636 236.24884033 C-31.73251978 234.29197622 -31.58674581 232.33346247 -31.45939636 230.37384033 C-31.02630144 224.33146769 -30.34988533 218.34133959 -29.55729675 212.33721924 C-29.12661937 208.92358149 -28.85525244 205.6173865 -28.90080261 202.17462158 C-28.89704673 198.39995535 -28.49103378 194.97045108 -27.89689636 191.24884033 C-27.72405646 189.86678586 -27.55763657 188.48391675 -27.39689636 187.10040283 C-27.31439636 186.40559814 -27.23189636 185.71079346 -27.14689636 184.99493408 C-26.97750481 183.55775263 -26.81092386 182.12023762 -26.64689636 180.68243408 C-26.00777056 175.35971453 -26.00777056 175.35971453 -24.89689636 174.24884033 C-23.8073068 166.95800648 -23.76886838 159.60333663 -23.89689636 152.24884033 C-23.23689636 152.24884033 -22.57689636 152.24884033 -21.89689636 152.24884033 C-21.90213318 151.66392822 -21.90737 151.07901611 -21.9127655 150.47637939 C-21.93359794 147.8172107 -21.94657644 145.15805922 -21.95939636 142.49884033 C-21.96777527 141.57844971 -21.97615417 140.65805908 -21.98478699 139.70977783 C-21.98800964 138.82032471 -21.9912323 137.93087158 -21.99455261 137.01446533 C-21.99978943 136.19752197 -22.00502625 135.38057861 -22.01042175 134.53887939 C-21.89904715 132.29222621 -21.466831 130.41702959 -20.89689636 128.24884033 C-20.70228463 126.67522203 -20.53754868 125.09772753 -20.39689636 123.51837158 C-20.27314636 122.19095947 -20.27314636 122.19095947 -20.14689636 120.83673096 C-19.97918257 118.97484582 -19.81252885 117.1128649 -19.64689636 115.25079346 C-19.56439636 114.36971924 -19.48189636 113.48864502 -19.39689636 112.58087158 C-19.32470886 111.77367676 -19.25252136 110.96648193 -19.17814636 110.13482666 C-18.89689636 108.24884033 -18.89689636 108.24884033 -17.89689636 107.24884033 C-17.89393903 104.91550887 -17.89457001 102.58217251 -17.89689636 100.24884033 C-17.62235333 97.68199623 -17.30807544 95.11916859 -16.95939636 92.56134033 C-15.87746594 84.32144155 -15.10075348 76.10007714 -14.65080261 67.79962158 C-14.58711487 66.64031128 -14.58711487 66.64031128 -14.5221405 65.45758057 C-14.43988022 63.92478134 -14.36210177 62.39173374 -14.28923035 60.85845947 C-14.00643339 55.46791439 -14.00643339 55.46791439 -12.89689636 53.24884033 C-12.58257113 50.13614742 -12.38599762 47.02266456 -12.17814636 43.90118408 C-11.89689636 41.24884033 -11.89689636 41.24884033 -10.89689636 40.24884033 C-10.70709298 37.51627414 -10.56780599 34.79736637 -10.45939636 32.06134033 C-10.13513744 25.02709272 -9.44945321 18.21611822 -8.29924011 11.26446533 C-7.814594 8.21619148 -7.814594 8.21619148 -7.96330261 4.98321533 C-7.83143431 -0.44665609 -4.6044115 0.01684259 0 0 Z M358.10310364 87.24884033 C353.85971237 91.90288237 351.72846805 98.35334082 349.41950989 104.10040283 C346.87296867 110.19094354 343.79855256 116.03942716 340.71638489 121.87384033 C337.7772697 127.52259024 335.71544957 133.08784366 334.10310364 139.24884033 C333.44310364 139.24884033 332.78310364 139.24884033 332.10310364 139.24884033 C331.14400813 141.47768178 330.18580527 143.70690002 329.22810364 145.93634033 C328.95868958 146.56218018 328.68927551 147.18802002 328.41169739 147.83282471 C326.92864085 151.28726127 325.4808288 154.75102354 324.10310364 158.24884033 C325.08536926 157.84278564 325.08536926 157.84278564 326.08747864 157.42852783 C329.08031145 156.25775645 332.09393397 155.19285924 335.13044739 154.14263916 C341.24084546 152.02910187 347.23712715 149.86949763 353.09919739 147.12774658 C356.6701075 145.56155793 360.38412318 144.40937324 364.10310364 143.24884033 C364.10310364 142.58884033 364.10310364 141.92884033 364.10310364 141.24884033 C365.01060364 141.12509033 365.91810364 141.00134033 366.85310364 140.87384033 C369.72644633 140.32127443 371.56903173 139.60401792 374.10310364 138.24884033 C373.64899036 131.66419785 372.17903718 125.86593969 370.27888489 119.55743408 C368.45580613 113.18516306 367.225938 106.65493717 365.94197083 100.15655518 C364.63119855 93.23476035 364.63119855 93.23476035 361.10310364 87.24884033 C360.11310364 87.24884033 359.12310364 87.24884033 358.10310364 87.24884033 Z M487.16560364 137.37384033 C479.60766625 142.22621258 471.92153398 146.82972753 464.10310364 151.24884033 C464.65817265 156.79953046 465.70328564 161.72284999 467.47810364 166.99884033 C469.06951066 171.88599997 470.53431397 176.74508364 471.72810364 181.74884033 C472.49622605 184.95435676 473.315527 188.00192434 474.54060364 191.06134033 C476.30548101 195.47815387 477.42294841 200.061351 478.61360168 204.65655518 C479.90521309 209.60700391 481.40979224 214.42290285 483.10310364 219.24884033 C484.09310364 218.75384033 484.09310364 218.75384033 485.10310364 218.24884033 C485.5576045 215.39885708 485.8848359 212.62266169 486.13825989 209.75274658 C486.2218425 208.89003647 486.30542511 208.02732635 486.39154053 207.13847351 C486.65837055 204.36351947 486.91217298 201.58754708 487.16560364 198.81134033 C487.33987044 196.97336764 487.51499046 195.13547563 487.69099426 193.29766846 C488.01736267 189.87895022 488.33847523 186.45982334 488.65412903 183.0401001 C488.72737396 182.26151642 488.8006189 181.48293274 488.87608337 180.68075562 C489.03751705 178.9514253 489.1937722 177.22160816 489.34648132 175.4914856 C489.42915253 174.5927774 489.51182373 173.69406921 489.59700012 172.76812744 C489.67006882 171.95065536 489.74313751 171.13318329 489.81842041 170.29093933 C490.10310364 168.24884033 490.10310364 168.24884033 491.10310364 166.24884033 C491.24154639 164.91026307 491.32813791 163.56603935 491.38435364 162.22149658 C491.42173645 161.42936768 491.45911926 160.63723877 491.49763489 159.82110596 C491.53243958 158.9928833 491.56724426 158.16466064 491.60310364 157.31134033 C491.67210393 155.6770557 491.74486922 154.04292458 491.82185364 152.40899658 C491.86729309 151.32050415 491.86729309 151.32050415 491.91365051 150.21002197 C492.10310364 148.24884033 492.10310364 148.24884033 493.10310364 145.24884033 C493.17165314 143.35413217 493.18790736 141.45715694 493.16560364 139.56134033 C493.1565802 138.56747314 493.14755676 137.57360596 493.13825989 136.54962158 C493.12665833 135.79036377 493.11505676 135.03110596 493.10310364 134.24884033 C491.00419431 134.24884033 488.83742586 136.29055581 487.16560364 137.37384033 Z M484.10310364 219.24884033 C485.10310364 222.24884033 485.10310364 222.24884033 485.10310364 222.24884033 Z " fill="#2D2A6F" transform="translate(39.89689636230469,6.75115966796875)"/>
<path d="M0 0 C1.90762711 0.00238804 3.8152566 0.00328899 5.72288513 0.0027771 C9.69765183 0.00588846 13.67205354 0.02233644 17.64672852 0.04931641 C22.7479979 0.08350297 27.84887147 0.09093819 32.95024204 0.08942604 C36.8783701 0.08996857 40.80641121 0.10091348 44.73451042 0.11542892 C46.61683432 0.12179948 48.49916806 0.12573642 50.38150215 0.12721634 C53.00003185 0.13153484 55.61813394 0.14899794 58.23657227 0.17041016 C59.40610947 0.1690506 59.40610947 0.1690506 60.59927368 0.16766357 C65.95461658 0.23196033 65.95461658 0.23196033 68.18359375 2.4609375 C68.97441626 5.08739183 69.6722376 7.67266917 70.30859375 10.3359375 C70.58123047 11.41681641 70.58123047 11.41681641 70.859375 12.51953125 C71.70216313 15.96038803 72.18359375 18.89775633 72.18359375 22.4609375 C72.84359375 22.4609375 73.50359375 22.4609375 74.18359375 22.4609375 C74.34964111 23.11054443 74.51568848 23.76015137 74.68676758 24.42944336 C75.45320897 27.41997377 76.22461923 30.40920172 76.99609375 33.3984375 C77.25712891 34.42001953 77.51816406 35.44160156 77.78710938 36.49414062 C79.17932772 41.8739473 80.69550423 47.15345048 82.50268555 52.40795898 C83.55398631 55.57769299 84.3598661 58.78687427 85.18359375 62.0234375 C86.37594828 66.62438929 87.69809095 71.07941398 89.45703125 75.49609375 C91.62003682 81.34551205 93.42083273 87.19105024 93.18359375 93.4609375 C93.84359375 93.4609375 94.50359375 93.4609375 95.18359375 93.4609375 C95.68795069 95.3973079 96.18693249 97.33507896 96.68359375 99.2734375 C97.10125 100.89185547 97.10125 100.89185547 97.52734375 102.54296875 C98.18359375 105.4609375 98.18359375 105.4609375 98.18359375 108.4609375 C99.31796875 107.8628125 100.45234375 107.2646875 101.62109375 106.6484375 C106.81083832 104.05356521 112.31247489 101.4609375 118.18359375 101.4609375 C118.18359375 100.8009375 118.18359375 100.1409375 118.18359375 99.4609375 C119.29476563 99.07421875 120.4059375 98.6875 121.55078125 98.2890625 C128.90040894 95.71937817 136.2215031 93.15334625 143.3984375 90.125 C145.18359375 89.4609375 145.18359375 89.4609375 147.18359375 89.4609375 C146.99925781 88.80867188 146.81492187 88.15640625 146.625 87.484375 C146.05424792 83.57497582 146.5754564 79.96301286 147.12109375 76.0859375 C147.84190384 70.82169867 148.24988284 65.79058071 148.18359375 60.4609375 C148.48862806 58.45642629 148.82440054 56.45645532 149.18359375 54.4609375 C149.97640754 48.14282143 150.5618241 41.79769627 151.18359375 35.4609375 C151.84359375 35.4609375 152.50359375 35.4609375 153.18359375 35.4609375 C153.12171875 33.9140625 153.12171875 33.9140625 153.05859375 32.3359375 C153.17934524 28.59264123 153.83231393 25.92359203 155.18359375 22.4609375 C155.84359375 22.4609375 156.50359375 22.4609375 157.18359375 22.4609375 C157.43109375 21.9246875 157.67859375 21.3884375 157.93359375 20.8359375 C163.23371717 10.765703 171.29773484 5.72704901 181.76846313 1.4887085 C187.88589758 -0.3523109 193.98883749 -0.17321825 200.3203125 -0.0625 C201.73565343 -0.05569245 203.15100582 -0.0509812 204.56636047 -0.04824829 C208.2504363 -0.03497688 211.93351739 0.00912952 215.61724854 0.05932617 C218.64131133 0.09503152 221.66528046 0.10785961 224.68951702 0.11974525 C228.29567668 0.13447951 231.90173272 0.15968501 235.5078125 0.1875 C236.19562994 0.19241077 236.88344738 0.19732155 237.59210777 0.20238113 C239.52329407 0.21857743 241.4544052 0.24310182 243.38549805 0.26806641 C244.4840361 0.28092682 245.58257416 0.29378723 246.71440125 0.30703735 C249.18359375 0.4609375 249.18359375 0.4609375 250.18359375 1.4609375 C250.42239972 8.98332556 250.42239972 8.98332556 249.18359375 11.4609375 C248.99163086 12.88735844 248.84971059 14.32070026 248.73461914 15.75537109 C248.66106705 16.6432431 248.58751495 17.53111511 248.51173401 18.44589233 C248.43567429 19.40734161 248.35961456 20.36879089 248.28125 21.359375 C248.11155498 23.38543568 247.94162581 25.41147676 247.77148438 27.4375 C247.50730754 30.63907748 247.24570154 33.84082102 246.98852539 37.04296875 C246.7391068 40.12824587 246.47956703 43.21254353 246.21875 46.296875 C246.14471451 47.25427582 246.07067902 48.21167664 245.99440002 49.1980896 C245.87934364 50.5393541 245.87934364 50.5393541 245.76196289 51.90771484 C245.69836075 52.69222015 245.63475861 53.47672546 245.56922913 54.28500366 C245.1513686 56.64276674 244.3515314 58.38229064 243.18359375 60.4609375 C242.19359375 60.4609375 241.20359375 60.4609375 240.18359375 60.4609375 C239.85359375 61.1209375 239.52359375 61.7809375 239.18359375 62.4609375 C237.86359375 62.4609375 236.54359375 62.4609375 235.18359375 62.4609375 C235.18359375 63.1209375 235.18359375 63.7809375 235.18359375 64.4609375 C234.21679688 64.83605469 233.25 65.21117188 232.25390625 65.59765625 C230.9387071 66.11434163 229.62360839 66.63128271 228.30859375 67.1484375 C227.67695312 67.39271484 227.0453125 67.63699219 226.39453125 67.88867188 C221.73544704 69.72901014 217.29429541 71.87455345 212.82958984 74.14282227 C208.257324 76.42051771 203.59267013 78.49319303 198.93359375 80.5859375 C197.03206451 81.44162566 195.13100892 82.29836729 193.23046875 83.15625 C192.35197266 83.55231445 191.47347656 83.94837891 190.56835938 84.35644531 C188.58701777 85.2740937 186.63811572 86.2613981 184.69921875 87.265625 C182.18359375 88.4609375 182.18359375 88.4609375 179.18359375 88.4609375 C178.85359375 89.1209375 178.52359375 89.7809375 178.18359375 90.4609375 C175.86579509 91.54257688 173.55707031 92.513167 171.18359375 93.4609375 C164.37858394 96.23887301 157.73416234 99.12819208 151.18359375 102.4609375 C148.12819373 103.81889307 146.53609044 104.4609375 143.18359375 104.4609375 C142.85359375 105.1209375 142.52359375 105.7809375 142.18359375 106.4609375 C140.37862366 107.29602918 138.53794734 108.05464135 136.68359375 108.7734375 C132.8196464 110.32632414 129.15982487 111.93240008 125.55859375 114.0234375 C121.75038291 116.22206282 117.88349909 117.85389194 113.78515625 119.43359375 C107.4078349 121.95196539 101.22599055 124.90888921 95.12109375 128.0234375 C91.02051713 130.10296922 86.85453422 131.82705242 82.5703125 133.48828125 C79.60463069 134.69688153 76.78217666 136.11937488 73.93359375 137.578125 C70.55978772 139.28008965 67.98208302 140.4609375 64.18359375 140.4609375 C64.18359375 141.1209375 64.18359375 141.7809375 64.18359375 142.4609375 C63.21421875 142.8734375 62.24484375 143.2859375 61.24609375 143.7109375 C58.52705636 144.87546547 55.82091952 146.06508851 53.12109375 147.2734375 C49.14148521 149.05199543 45.13398407 150.75888893 41.12109375 152.4609375 C37.21902698 154.12183876 33.38229077 155.81448072 29.62109375 157.7734375 C26.65801611 159.22803925 24.37772229 159.88018686 21.18359375 160.4609375 C20.85359375 161.1209375 20.52359375 161.7809375 20.18359375 162.4609375 C17.59233276 163.61791019 15.0132952 164.68361804 12.37109375 165.7109375 C7.22644359 167.76655449 2.17815056 169.86294351 -2.75390625 172.3984375 C-7.8936577 175.0398975 -13.10883503 177.46845132 -18.37890625 179.8359375 C-19.16579834 180.19421631 -19.95269043 180.55249512 -20.76342773 180.92163086 C-21.50407471 181.25171143 -22.24472168 181.58179199 -23.0078125 181.921875 C-23.66982666 182.21884277 -24.33184082 182.51581055 -25.01391602 182.82177734 C-26.81640625 183.4609375 -26.81640625 183.4609375 -29.81640625 183.4609375 C-29.81640625 184.1209375 -29.81640625 184.7809375 -29.81640625 185.4609375 C-30.78578125 185.5846875 -31.75515625 185.7084375 -32.75390625 185.8359375 C-33.76453125 186.0421875 -34.77515625 186.2484375 -35.81640625 186.4609375 C-36.14640625 187.1209375 -36.47640625 187.7809375 -36.81640625 188.4609375 C-38.71972998 189.19330793 -40.62615086 189.91877749 -42.54833984 190.60009766 C-46.96033328 192.2746605 -51.08189826 194.5751211 -55.25585938 196.76367188 C-60.50526873 199.4609375 -60.50526873 199.4609375 -63.81640625 199.4609375 C-64.14640625 200.1209375 -64.47640625 200.7809375 -64.81640625 201.4609375 C-66.81640625 201.79427083 -68.81640625 202.12760417 -70.81640625 202.4609375 C-71.14640625 203.1209375 -71.47640625 203.7809375 -71.81640625 204.4609375 C-74.03125 205.53125 -74.03125 205.53125 -76.75390625 206.5859375 C-78.09775391 207.11574219 -78.09775391 207.11574219 -79.46875 207.65625 C-81.81640625 208.4609375 -81.81640625 208.4609375 -83.81640625 208.4609375 C-84.14640625 209.1209375 -84.47640625 209.7809375 -84.81640625 210.4609375 C-87.13892861 211.52998935 -89.4451091 212.51469298 -91.81640625 213.4609375 C-100.89334895 217.30947496 -109.88090045 221.29175861 -118.81640625 225.4609375 C-120.98261492 226.46192923 -123.14928295 227.46192748 -125.31640625 228.4609375 C-128.66203698 230.00382546 -132.00640409 231.54921083 -135.34765625 233.1015625 C-137.0646875 233.89820313 -137.0646875 233.89820313 -138.81640625 234.7109375 C-139.84765625 235.19046875 -140.87890625 235.67 -141.94140625 236.1640625 C-149.25014119 239.4609375 -149.25014119 239.4609375 -152.81640625 239.4609375 C-152.81640625 240.1209375 -152.81640625 240.7809375 -152.81640625 241.4609375 C-153.80640625 241.4609375 -154.79640625 241.4609375 -155.81640625 241.4609375 C-154.06833496 235.99356559 -152.15846544 230.70268902 -149.81640625 225.4609375 C-149.15640625 225.4609375 -148.49640625 225.4609375 -147.81640625 225.4609375 C-147.61337891 224.6565625 -147.61337891 224.6565625 -147.40625 223.8359375 C-144.21164738 212.20528843 -138.81348477 201.31328133 -133.50390625 190.5234375 C-132.99790894 189.48485596 -132.99790894 189.48485596 -132.48168945 188.42529297 C-130.05564205 183.5805554 -130.05564205 183.5805554 -127.81640625 182.4609375 C-127.32751865 180.78654992 -126.84486054 179.10995896 -126.40185547 177.42285156 C-125.4447697 174.21553661 -123.91007726 171.29778682 -122.37890625 168.3359375 C-122.04052734 167.66868652 -121.70214844 167.00143555 -121.35351562 166.31396484 C-119.22097995 162.12967136 -117.03629093 157.97341664 -114.84375 153.8203125 C-114.09146118 152.39356201 -114.09146118 152.39356201 -113.32397461 150.93798828 C-112.32799084 149.0537644 -111.32757936 147.17187356 -110.32250977 145.29248047 C-109.63886353 144.00301514 -109.63886353 144.00301514 -108.94140625 142.6875 C-108.53148437 141.92002441 -108.1215625 141.15254883 -107.69921875 140.36181641 C-106.67600159 138.50792983 -106.67600159 138.50792983 -106.81640625 136.4609375 C-106.15640625 136.4609375 -105.49640625 136.4609375 -104.81640625 136.4609375 C-104.70538574 135.74470215 -104.59436523 135.0284668 -104.47998047 134.29052734 C-103.76608715 131.24636854 -102.67421349 128.94026048 -101.19921875 126.1875 C-100.67457031 125.1975 -100.14992188 124.2075 -99.609375 123.1875 C-99.05894531 122.16398437 -98.50851562 121.14046875 -97.94140625 120.0859375 C-93.04091227 110.93410863 -93.04091227 110.93410863 -88.81640625 101.4609375 C-88.15640625 101.4609375 -87.49640625 101.4609375 -86.81640625 101.4609375 C-86.62304688 100.86925781 -86.4296875 100.27757813 -86.23046875 99.66796875 C-84.87225906 95.546273 -83.4959004 91.4658851 -81.81640625 87.4609375 C-81.15640625 87.4609375 -80.49640625 87.4609375 -79.81640625 87.4609375 C-79.62304688 86.86925781 -79.4296875 86.27757813 -79.23046875 85.66796875 C-77.87225906 81.546273 -76.4959004 77.4658851 -74.81640625 73.4609375 C-74.15640625 73.4609375 -73.49640625 73.4609375 -72.81640625 73.4609375 C-72.62304688 72.86925781 -72.4296875 72.27757813 -72.23046875 71.66796875 C-70.87225906 67.546273 -69.4959004 63.4658851 -67.81640625 59.4609375 C-67.15640625 59.4609375 -66.49640625 59.4609375 -65.81640625 59.4609375 C-65.15640625 56.4909375 -64.49640625 53.5209375 -63.81640625 50.4609375 C-63.15640625 50.4609375 -62.49640625 50.4609375 -61.81640625 50.4609375 C-61.48640625 48.8109375 -61.15640625 47.1609375 -60.81640625 45.4609375 C-60.15640625 45.4609375 -59.49640625 45.4609375 -58.81640625 45.4609375 C-58.15640625 42.4909375 -57.49640625 39.5209375 -56.81640625 36.4609375 C-56.15640625 36.4609375 -55.49640625 36.4609375 -54.81640625 36.4609375 C-54.48640625 34.8109375 -54.15640625 33.1609375 -53.81640625 31.4609375 C-53.15640625 31.4609375 -52.49640625 31.4609375 -51.81640625 31.4609375 C-50.82640625 27.0059375 -50.82640625 27.0059375 -49.81640625 22.4609375 C-49.15640625 22.4609375 -48.49640625 22.4609375 -47.81640625 22.4609375 C-47.56890625 21.9246875 -47.32140625 21.3884375 -47.06640625 20.8359375 C-46.65390625 20.0521875 -46.24140625 19.2684375 -45.81640625 18.4609375 C-45.34203125 17.5534375 -44.86765625 16.6459375 -44.37890625 15.7109375 C-33.98536927 0.54407242 -16.43831278 -0.1362947 0 0 Z M6.18359375 87.4609375 C1.94020248 92.11497954 -0.19104184 98.56543799 -2.5 104.3125 C-5.04654121 110.40304071 -8.12095733 116.25152432 -11.203125 122.0859375 C-14.14224018 127.7346874 -16.20406031 133.29994083 -17.81640625 139.4609375 C-18.47640625 139.4609375 -19.13640625 139.4609375 -19.81640625 139.4609375 C-20.77550176 141.68977895 -21.73370462 143.91899718 -22.69140625 146.1484375 C-22.96082031 146.77427734 -23.23023438 147.40011719 -23.5078125 148.04492188 C-24.99086903 151.49935844 -26.43868109 154.96312071 -27.81640625 158.4609375 C-26.83414063 158.05488281 -26.83414063 158.05488281 -25.83203125 157.640625 C-22.83919844 156.46985362 -19.82557592 155.40495641 -16.7890625 154.35473633 C-10.67866443 152.24119903 -4.68238274 150.0815948 1.1796875 147.33984375 C4.75059762 145.7736551 8.46461329 144.62147041 12.18359375 143.4609375 C12.18359375 142.8009375 12.18359375 142.1409375 12.18359375 141.4609375 C13.09109375 141.3371875 13.99859375 141.2134375 14.93359375 141.0859375 C17.80693644 140.5333716 19.64952184 139.81611509 22.18359375 138.4609375 C21.72948048 131.87629501 20.25952729 126.07803686 18.359375 119.76953125 C16.53629625 113.39726022 15.30642811 106.86703434 14.02246094 100.36865234 C12.71168866 93.44685752 12.71168866 93.44685752 9.18359375 87.4609375 C8.19359375 87.4609375 7.20359375 87.4609375 6.18359375 87.4609375 Z " fill="#F06724" transform="translate(391.81640625,6.5390625)"/>
<path d="M0 0 C0.02686553 1.97909398 0.04633375 3.95828971 0.0625 5.9375 C0.07410156 7.03964844 0.08570313 8.14179687 0.09765625 9.27734375 C0 12 0 12 -1 13 C-1.26676263 15.07150106 -1.47000045 17.15120701 -1.6484375 19.23217773 C-1.70549866 19.8826004 -1.76255981 20.53302307 -1.8213501 21.20315552 C-1.94501568 22.61950574 -2.06658639 24.03604004 -2.18634033 25.45272636 C-2.37576716 27.69266527 -2.57068579 29.93206481 -2.76708984 32.17140198 C-3.18308845 36.92633871 -3.591897 41.68188007 -4 46.4375 C-4.47283714 51.94303167 -4.9485769 57.44828632 -5.43096924 62.95298958 C-5.6232086 65.16299953 -5.81047885 67.37339519 -5.99755859 69.58384705 C-6.11532519 70.93539441 -6.23331439 72.28692241 -6.3515625 73.63842773 C-6.45291504 74.82121811 -6.55426758 76.00400848 -6.65869141 77.22264099 C-7 80 -7 80 -8 82 C-8.25974755 84.07965263 -8.46632849 86.16602212 -8.6484375 88.25390625 C-8.76525879 89.56866943 -8.88208008 90.88343262 -9.00244141 92.23803711 C-9.06312805 92.94266083 -9.1238147 93.64728455 -9.18634033 94.3732605 C-9.37611566 96.57544629 -9.57092368 98.77713467 -9.76708984 100.97875977 C-10.18257892 105.65211355 -10.59173486 110.32601032 -11 115 C-11.47299673 120.41506399 -11.94855763 125.82987602 -12.43096924 131.24411011 C-12.62313812 133.41645263 -12.81042495 135.58918166 -12.99755859 137.76196289 C-13.11437988 139.07672607 -13.23120117 140.39148926 -13.3515625 141.74609375 C-13.45291504 142.90810303 -13.55426758 144.0701123 -13.65869141 145.26733398 C-14 148 -14 148 -15 150 C-15.22785486 151.68696268 -15.40491586 153.38091004 -15.55664062 155.07641602 C-15.65344116 156.13413712 -15.7502417 157.19185822 -15.84997559 158.28163147 C-15.95104614 159.42748215 -16.0521167 160.57333282 -16.15625 161.75390625 C-16.31704041 163.51068947 -16.31704041 163.51068947 -16.4810791 165.30296326 C-16.94131339 170.33155056 -17.3922529 175.3609589 -17.84326172 180.39038086 C-18.1731162 184.05356395 -18.5082484 187.71623677 -18.84375 191.37890625 C-18.94482056 192.52678116 -19.04589111 193.67465607 -19.15002441 194.85731506 C-19.24682495 195.911884 -19.34362549 196.96645294 -19.44335938 198.05297852 C-19.56874084 199.45290794 -19.56874084 199.45290794 -19.69665527 200.88111877 C-20 203 -20 203 -21 204 C-23.03201735 204.10775168 -25.0678276 204.1441355 -27.10267639 204.15390015 C-27.74717112 204.1582824 -28.39166584 204.16266465 -29.05569071 204.1671797 C-31.23122177 204.18061246 -33.40671229 204.18675666 -35.58227539 204.19287109 C-37.13592718 204.20076886 -38.68957712 204.20903761 -40.2432251 204.21765137 C-45.36135088 204.24392026 -50.47948502 204.25918888 -55.59765625 204.2734375 C-57.35854027 204.27879614 -59.11942424 204.28417364 -60.88030815 204.28956985 C-68.20710191 204.31121023 -75.53389344 204.32994533 -82.8607111 204.34119225 C-93.3627267 204.35741795 -103.86437145 204.39054875 -114.36624724 204.44759309 C-121.74807237 204.48632155 -129.12979846 204.50582867 -136.51172251 204.51111281 C-140.92084106 204.51476377 -145.32956454 204.52675652 -149.73857307 204.55921555 C-153.89109851 204.58934563 -158.04299092 204.59559066 -162.19560242 204.58383179 C-163.71613362 204.58361143 -165.23669459 204.59188544 -166.75712395 204.60948563 C-180.53815142 204.760267 -180.53815142 204.760267 -186.69684505 200.46386147 C-188.26338123 198.7041383 -188.61489306 197.29913708 -189 195 C-189.66 195 -190.32 195 -191 195 C-191.45882227 193.02094662 -191.91702908 191.04175056 -192.375 189.0625 C-192.64957031 187.87785156 -192.92414063 186.69320312 -193.20703125 185.47265625 C-193.85094637 182.6527521 -194.46400025 179.8297068 -195.0625 177 C-195.56935905 174.68771741 -196.11704539 172.70738654 -197 170.5 C-199.08762072 165.2809482 -200.3636106 159.63596423 -200 154 C-200.66 153.67 -201.32 153.34 -202 153 C-202.4140625 150.05859375 -202.4140625 150.05859375 -202.625 146.4375 C-202.73714844 144.64119141 -202.73714844 144.64119141 -202.8515625 142.80859375 C-202.90054688 141.88175781 -202.94953125 140.95492187 -203 140 C-203.66 140 -204.32 140 -205 140 C-205.66 138.02 -206.32 136.04 -207 134 C-207.75925781 134.42152344 -208.51851562 134.84304687 -209.30078125 135.27734375 C-210.79158203 136.09912109 -210.79158203 136.09912109 -212.3125 136.9375 C-213.29863281 137.48277344 -214.28476562 138.02804688 -215.30078125 138.58984375 C-218 140 -218 140 -221 141 C-221.33 141.66 -221.66 142.32 -222 143 C-227.42307692 146 -227.42307692 146 -230 146 C-230 146.66 -230 147.32 -230 148 C-231.62249941 148.83819158 -233.24808497 149.6704116 -234.875 150.5 C-235.77992188 150.9640625 -236.68484375 151.428125 -237.6171875 151.90625 C-240 153 -240 153 -242 153 C-242 153.66 -242 154.32 -242 155 C-242.66 155 -243.32 155 -244 155 C-244.33 155.66 -244.66 156.32 -245 157 C-246.56342921 157.93805753 -248.13420866 158.86506222 -249.73046875 159.74609375 C-257.93840234 164.28094174 -265.94150762 169.16451956 -273.9140625 174.09765625 C-277.3916579 176.24143974 -280.89430472 178.34017859 -284.40234375 180.43359375 C-287.47173945 182.28446243 -290.51614237 184.17397007 -293.5625 186.0625 C-308.07521593 195 -308.07521593 195 -311 195 C-311 195.66 -311 196.32 -311 197 C-311.78246094 197.42152344 -312.56492187 197.84304688 -313.37109375 198.27734375 C-314.38300781 198.82519531 -315.39492188 199.37304688 -316.4375 199.9375 C-317.44683594 200.48277344 -318.45617187 201.02804687 -319.49609375 201.58984375 C-321.86670493 202.77699468 -321.86670493 202.77699468 -323 204 C-325.83040672 204.09520906 -328.63634993 204.12553631 -331.46704102 204.11352539 C-332.35476196 204.11367142 -333.24248291 204.11381744 -334.15710449 204.1139679 C-337.10606284 204.11326843 -340.05495887 204.10547448 -343.00390625 204.09765625 C-345.04271917 204.09579219 -347.08153254 204.09436823 -349.12034607 204.09336853 C-354.49784574 204.08954241 -359.87531858 204.07971132 -365.25280762 204.06866455 C-370.73559201 204.05845245 -376.21838072 204.05387134 -381.70117188 204.04882812 C-392.46745973 204.03808914 -403.23372764 204.02101159 -414 204 C-412.68 202.02 -411.36 200.04 -410 198 C-409.01 198.33 -408.02 198.66 -407 199 C-406.505 198.01 -406.505 198.01 -406 197 C-404.29296875 196 -404.29296875 196 -402.1875 195 C-401.50042969 194.67 -400.81335938 194.34 -400.10546875 194 C-399.41066406 193.67 -398.71585938 193.34 -398 193 C-397.31550781 192.62875 -396.63101563 192.2575 -395.92578125 191.875 C-394 191 -394 191 -391 191 C-391 190.34 -391 189.68 -391 189 C-390.23558594 188.64808594 -389.47117187 188.29617188 -388.68359375 187.93359375 C-385.76011909 186.58619207 -382.83774257 185.2364407 -379.91601562 183.88525391 C-378.66773154 183.30851103 -377.41905266 182.73262162 -376.16992188 182.15771484 C-365.68047901 177.32883702 -355.34999629 172.21876997 -345.04394531 167.01171875 C-333.25224189 161.05954668 -321.34131488 155.38217309 -309.38330078 149.77246094 C-299.38207485 145.07744608 -289.48241353 140.28030073 -279.75170898 135.04516602 C-275.19513412 132.60221272 -270.58887053 130.38462379 -265.85546875 128.30078125 C-262.27170506 126.66823226 -258.76444243 124.90083275 -255.25 123.125 C-249.28693601 120.11475512 -243.27813143 117.23194316 -237.21484375 114.4296875 C-233.86549077 112.87892999 -230.54206469 111.2938148 -227.25 109.625 C-221.54999919 106.73674455 -215.76257441 104.03484553 -209.98095703 101.31494141 C-204.93480252 98.93573921 -199.93542083 96.49336015 -195.0078125 93.875 C-192.70025534 92.86937198 -190.47651753 92.41419109 -188 92 C-188 91.34 -188 90.68 -188 90 C-186.04350603 89.16235732 -184.08474444 88.33000941 -182.125 87.5 C-180.48917969 86.80390625 -180.48917969 86.80390625 -178.8203125 86.09375 C-176 85 -176 85 -174 85 C-174 84.34 -174 83.68 -174 83 C-173.35417969 82.75507813 -172.70835937 82.51015625 -172.04296875 82.2578125 C-165.23251866 79.55599235 -158.82739423 76.39784638 -152.375 72.9375 C-135.68685803 64 -135.68685803 64 -131 64 C-131 63.34 -131 62.68 -131 62 C-130.18660156 61.67128906 -129.37320312 61.34257812 -128.53515625 61.00390625 C-120.82305557 57.80282059 -113.46013329 54.21404682 -106.11181641 50.25048828 C-101.43306469 47.73426517 -96.7136698 45.44149031 -91.8515625 43.296875 C-88.29407952 41.67895123 -84.80433465 39.941765 -81.3125 38.1875 C-80.62945801 37.84436768 -79.94641602 37.50123535 -79.24267578 37.14770508 C-76.51333033 35.77408996 -73.78573929 34.39701967 -71.05859375 33.01904297 C-59.45822479 27.16228585 -47.74460367 21.56103433 -36 16 C-32.31159139 14.25190848 -28.62420147 12.50168875 -24.9375 10.75 C-24.06150146 10.33459961 -23.18550293 9.91919922 -22.28295898 9.49121094 C-16.52465342 6.75235062 -10.82672529 3.92358631 -5.1796875 0.9609375 C-3 0 -3 0 0 0 Z M-107.9375 72.125 C-115.49543738 76.97737225 -123.18156966 81.5808872 -131 86 C-130.44493099 91.55069013 -129.399818 96.47400966 -127.625 101.75 C-126.03359298 106.63715964 -124.56878967 111.49624331 -123.375 116.5 C-122.60687759 119.70551642 -121.78757664 122.75308401 -120.5625 125.8125 C-118.79762262 130.22931354 -117.68015523 134.81251067 -116.48950195 139.40771484 C-115.19789055 144.35816358 -113.6933114 149.17406252 -112 154 C-111.01 153.505 -111.01 153.505 -110 153 C-109.54549914 150.15001674 -109.21826774 147.37382136 -108.96484375 144.50390625 C-108.88126114 143.64119614 -108.79767853 142.77848602 -108.71156311 141.88963318 C-108.44473309 139.11467914 -108.19093066 136.33870675 -107.9375 133.5625 C-107.7632332 131.72452731 -107.58811318 129.8866353 -107.41210938 128.04882812 C-107.08574096 124.63010989 -106.7646284 121.21098301 -106.44897461 117.79125977 C-106.37572968 117.01267609 -106.30248474 116.23409241 -106.22702026 115.43191528 C-106.06558659 113.70258497 -105.90933144 111.97276783 -105.75662231 110.24264526 C-105.67395111 109.34393707 -105.59127991 108.44522888 -105.50610352 107.51928711 C-105.43303482 106.70181503 -105.35996613 105.88434296 -105.28468323 105.042099 C-105 103 -105 103 -104 101 C-103.86155725 99.66142274 -103.77496573 98.31719902 -103.71875 96.97265625 C-103.68136719 96.18052734 -103.64398437 95.38839844 -103.60546875 94.57226562 C-103.57066406 93.74404297 -103.53585937 92.91582031 -103.5 92.0625 C-103.43099971 90.42821536 -103.35823442 88.79408425 -103.28125 87.16015625 C-103.23581055 86.07166382 -103.23581055 86.07166382 -103.18945312 84.96118164 C-103 83 -103 83 -102 80 C-101.9314505 78.10529184 -101.91519628 76.2083166 -101.9375 74.3125 C-101.94652344 73.31863281 -101.95554687 72.32476562 -101.96484375 71.30078125 C-101.97644531 70.54152344 -101.98804688 69.78226562 -102 69 C-104.09890933 69 -106.26567778 71.04171548 -107.9375 72.125 Z M-111 154 C-110 157 -110 157 -110 157 Z " fill="#F06724" transform="translate(635,72)"/>
<path d="M0 0 C0.99 0 1.98 0 3 0 C3.04254356 1.99954746 3.04080783 4.00041636 3 6 C2.67 6.33 2.34 6.66 2 7 C1.73323737 9.07150106 1.52999955 11.15120701 1.3515625 13.23217773 C1.29450134 13.8826004 1.23744019 14.53302307 1.1786499 15.20315552 C1.05498432 16.61950574 0.93341361 18.03604004 0.81365967 19.45272636 C0.62423284 21.69266527 0.42931421 23.93206481 0.23291016 26.17140198 C-0.18308845 30.92633871 -0.591897 35.68188007 -1 40.4375 C-1.47283714 45.94303167 -1.9485769 51.44828632 -2.43096924 56.95298958 C-2.6232086 59.16299953 -2.81047885 61.37339519 -2.99755859 63.58384705 C-3.11532519 64.93539441 -3.23331439 66.28692241 -3.3515625 67.63842773 C-3.45291504 68.82121811 -3.55426758 70.00400848 -3.65869141 71.22264099 C-4 74 -4 74 -5 76 C-5.25974755 78.07965263 -5.46632849 80.16602212 -5.6484375 82.25390625 C-5.76525879 83.56866943 -5.88208008 84.88343262 -6.00244141 86.23803711 C-6.06312805 86.94266083 -6.1238147 87.64728455 -6.18634033 88.3732605 C-6.37611566 90.57544629 -6.57092368 92.77713467 -6.76708984 94.97875977 C-7.18257892 99.65211355 -7.59173486 104.32601032 -8 109 C-8.47299673 114.41506399 -8.94855763 119.82987602 -9.43096924 125.24411011 C-9.62313812 127.41645263 -9.81042495 129.58918166 -9.99755859 131.76196289 C-10.11437988 133.07672607 -10.23120117 134.39148926 -10.3515625 135.74609375 C-10.45291504 136.90810303 -10.55426758 138.0701123 -10.65869141 139.26733398 C-11 142 -11 142 -12 144 C-12.22785486 145.68696268 -12.40491586 147.38091004 -12.55664062 149.07641602 C-12.65344116 150.13413712 -12.7502417 151.19185822 -12.84997559 152.28163147 C-12.95104614 153.42748215 -13.0521167 154.57333282 -13.15625 155.75390625 C-13.2634436 156.92509506 -13.37063721 158.09628387 -13.4810791 159.30296326 C-13.94131339 164.33155056 -14.3922529 169.3609589 -14.84326172 174.39038086 C-15.1731162 178.05356395 -15.5082484 181.71623677 -15.84375 185.37890625 C-15.94482056 186.52678116 -16.04589111 187.67465607 -16.15002441 188.85731506 C-16.24682495 189.911884 -16.34362549 190.96645294 -16.44335938 192.05297852 C-16.56874084 193.45290794 -16.56874084 193.45290794 -16.69665527 194.88111877 C-17 197 -17 197 -18 198 C-20.92194665 198.09525367 -23.82020329 198.12552736 -26.74243164 198.11352539 C-28.11790413 198.11374443 -28.11790413 198.11374443 -29.52116394 198.1139679 C-32.56751836 198.1132684 -35.61381245 198.10547428 -38.66015625 198.09765625 C-40.76622993 198.0957922 -42.87230403 198.09436824 -44.9783783 198.09336853 C-50.53342883 198.08954231 -56.08845341 198.07971114 -61.64349365 198.06866455 C-67.3072474 198.05845267 -72.97100533 198.05387139 -78.63476562 198.04882812 C-89.75652185 198.03808896 -100.87825877 198.0210113 -112 198 C-111.79660818 195.61345435 -111.59321472 193.22690883 -111.38981915 190.8403635 C-111.21710211 188.81377472 -111.04438855 186.78718564 -110.87167835 184.76059628 C-110.41946082 179.4543935 -109.9670589 174.14820653 -109.5144043 168.84204102 C-108.71296514 159.43900115 -107.91495974 150.03592743 -107.15551758 140.62939453 C-106.40065872 131.30904315 -105.5498465 121.99876841 -104.63943481 112.69241333 C-104.50595979 111.32589297 -104.37367548 109.95925573 -104.24264526 108.59249878 C-104.06041599 106.69928547 -103.87214193 104.80665694 -103.68359375 102.9140625 C-103.52201782 101.2736499 -103.52201782 101.2736499 -103.35717773 99.60009766 C-103 97 -103 97 -102 95 C-101.86155725 93.66142274 -101.77496573 92.31719902 -101.71875 90.97265625 C-101.68136719 90.18052734 -101.64398437 89.38839844 -101.60546875 88.57226562 C-101.57066406 87.74404297 -101.53585937 86.91582031 -101.5 86.0625 C-101.43099971 84.42821536 -101.35823442 82.79408425 -101.28125 81.16015625 C-101.23581055 80.07166382 -101.23581055 80.07166382 -101.18945312 78.96118164 C-101 77 -101 77 -100 74 C-99.73383035 71.23268058 -99.55631192 68.46572899 -99.37890625 65.69140625 C-98.98791647 62.91416955 -98.60346417 61.29275822 -97 59 C-94.71484375 57.5078125 -94.71484375 57.5078125 -91.9375 56.125 C-87.45234543 53.80610464 -83.29788013 51.29425626 -79.16796875 48.39453125 C-77 47 -77 47 -74.140625 45.58203125 C-70.77506364 43.88669251 -67.7112255 41.94448036 -64.5625 39.875 C-59.36606126 36.49199363 -54.12379606 33.19988874 -48.8125 30 C-48.17707275 29.61440918 -47.54164551 29.22881836 -46.88696289 28.83154297 C-44.27517413 27.26651873 -41.89920616 25.96640205 -39 25 C-38.55011719 24.54367188 -38.10023438 24.08734375 -37.63671875 23.6171875 C-35.57056021 21.57568479 -33.38530167 20.46764685 -30.8125 19.125 C-26.59164877 16.88582163 -22.54337208 14.51723976 -18.55859375 11.8828125 C-17 11 -17 11 -15 11 C-15 10.34 -15 9.68 -15 9 C-14.08476563 8.51789063 -13.16953125 8.03578125 -12.2265625 7.5390625 C-11.0259405 6.90123206 -9.8254252 6.26320074 -8.625 5.625 C-8.02171875 5.30789062 -7.4184375 4.99078125 -6.796875 4.6640625 C-4.21449618 3.2867938 -2.08169419 2.08169419 0 0 Z " fill="#2D2A6F" transform="translate(632,78)"/>
<path d="M0 0 C1.41534093 0.00680755 2.83069332 0.0115188 4.24604797 0.01425171 C7.9301238 0.02752312 11.61320489 0.07162952 15.29693604 0.12182617 C18.32099883 0.15753152 21.34496796 0.17035961 24.36920452 0.18224525 C27.97536418 0.19697951 31.58142022 0.22218501 35.1875 0.25 C35.87531744 0.25491077 36.56313488 0.25982155 37.27179527 0.26488113 C39.20298157 0.28107743 41.1340927 0.30560182 43.06518555 0.33056641 C44.1637236 0.34342682 45.26226166 0.35628723 46.39408875 0.36953735 C48.86328125 0.5234375 48.86328125 0.5234375 49.86328125 1.5234375 C50.10208722 9.04582556 50.10208722 9.04582556 48.86328125 11.5234375 C48.66228674 12.87885713 48.50920217 14.24157986 48.38256836 15.60595703 C48.26255714 16.86703781 48.26255714 16.86703781 48.14012146 18.15359497 C48.01662071 19.51615921 48.01662071 19.51615921 47.890625 20.90625 C47.75957115 22.30035599 47.75957115 22.30035599 47.62586975 23.72262573 C47.34708198 26.69755946 47.07387156 29.67297588 46.80078125 32.6484375 C46.61299671 34.66279462 46.4248503 36.67711803 46.23632812 38.69140625 C45.77444243 43.63503509 45.31755886 48.57910397 44.86328125 53.5234375 C41.42824353 54.69744338 37.98987411 55.86136959 34.55078125 57.0234375 C33.57431641 57.35730469 32.59785156 57.69117188 31.59179688 58.03515625 C30.65400391 58.35097656 29.71621094 58.66679688 28.75 58.9921875 C27.88592529 59.28544922 27.02185059 59.57871094 26.1315918 59.88085938 C23.86328125 60.5234375 23.86328125 60.5234375 20.86328125 60.5234375 C20.86328125 61.1834375 20.86328125 61.8434375 20.86328125 62.5234375 C18.92769526 63.19564101 16.98973753 63.86101827 15.05078125 64.5234375 C13.97183594 64.8946875 12.89289063 65.2659375 11.78125 65.6484375 C8.86328125 66.5234375 8.86328125 66.5234375 5.86328125 66.5234375 C5.86328125 67.1834375 5.86328125 67.8434375 5.86328125 68.5234375 C5.26789551 68.72501465 4.67250977 68.9265918 4.05908203 69.13427734 C1.36671218 70.04960949 -1.32249593 70.97390251 -4.01171875 71.8984375 C-4.94886719 72.21554688 -5.88601563 72.53265625 -6.8515625 72.859375 C-7.74746094 73.16875 -8.64335938 73.478125 -9.56640625 73.796875 C-10.80753174 74.22105713 -10.80753174 74.22105713 -12.07373047 74.65380859 C-14.30726253 75.44270478 -14.30726253 75.44270478 -16.13671875 77.5234375 C-18.65231423 78.37844914 -21.14990381 79.15982392 -23.69921875 79.8984375 C-29.1044454 81.51362658 -34.19448922 83.3134127 -39.296875 85.7421875 C-41.85100189 86.82674244 -44.38868706 87.2415881 -47.13671875 87.5234375 C-47.13671875 88.1834375 -47.13671875 88.8434375 -47.13671875 89.5234375 C-50.10671875 90.0184375 -50.10671875 90.0184375 -53.13671875 90.5234375 C-54.28793997 85.42747222 -53.92380335 81.17603183 -53.19921875 76.0859375 C-52.47668039 70.8417075 -52.07075095 65.83384561 -52.13671875 60.5234375 C-51.83168444 58.51892629 -51.49591196 56.51895532 -51.13671875 54.5234375 C-50.34390496 48.20532143 -49.7584884 41.86019627 -49.13671875 35.5234375 C-48.47671875 35.5234375 -47.81671875 35.5234375 -47.13671875 35.5234375 C-47.19859375 33.9765625 -47.19859375 33.9765625 -47.26171875 32.3984375 C-47.14096726 28.65514123 -46.48799857 25.98609203 -45.13671875 22.5234375 C-44.47671875 22.5234375 -43.81671875 22.5234375 -43.13671875 22.5234375 C-42.88921875 21.9871875 -42.64171875 21.4509375 -42.38671875 20.8984375 C-37.08659533 10.828203 -29.02257766 5.78954901 -18.55184937 1.5512085 C-12.43441492 -0.2898109 -6.33147501 -0.11071825 0 0 Z " fill="#2E2A6F" transform="translate(592.13671875,6.4765625)"/>
<path d="M0 0 C0 0.99 0 1.98 0 3 C-5.17578125 6.22265625 -5.17578125 6.22265625 -7 7 C-7.99 6.67 -8.98 6.34 -10 6 C-6.375 3 -6.375 3 -3 3 C-3 2.34 -3 1.68 -3 1 C-2.01 0.67 -1.02 0.34 0 0 Z " fill="#B35240" transform="translate(247,260)"/>
<path d="" fill="#B0513E" transform="translate(0,0)"/>
</svg>
