<?xml version="1.0" encoding="UTF-8"?>
<svg version="1.1" xmlns="http://www.w3.org/2000/svg" width="822" height="156">
<path d="M0 0 C219.12 0 438.24 0 664 0 C664 49.17 664 98.34 664 149 C444.88 149 225.76 149 0 149 C0 99.83 0 50.66 0 0 Z " fill="#0F5AA5" transform="translate(153,4)"/>
<path d="M0 0 C84.81 0 169.62 0 257 0 C257 49.17 257 98.34 257 149 C172.19 149 87.38 149 0 149 C0 99.83 0 50.66 0 0 Z " fill="#F6842A" transform="translate(560,4)"/>
<path d="M0 0 C1.73443359 0.00773437 1.73443359 0.00773437 3.50390625 0.015625 C4.65761719 0.01046875 5.81132813 0.0053125 7 0 C10.06640625 0.265625 10.06640625 0.265625 13.06640625 2.265625 C13.46513367 4.25247192 13.46513367 4.25247192 13.4987793 6.71533203 C13.51857346 7.63613556 13.53836761 8.55693909 13.5587616 9.50564575 C13.56515152 10.50151703 13.57154144 11.49738831 13.578125 12.5234375 C13.5960762 13.54162567 13.6140274 14.55981384 13.63252258 15.6088562 C13.68681972 18.86940332 13.72058363 22.12980248 13.75390625 25.390625 C13.78706217 27.59767693 13.82155019 29.80470929 13.85742188 32.01171875 C13.942557 37.42955481 14.01082429 42.84740957 14.06640625 48.265625 C14.32977783 47.72437988 14.59314941 47.18313477 14.86450195 46.62548828 C15.21601318 45.91118652 15.56752441 45.19688477 15.9296875 44.4609375 C16.44849487 43.40156982 16.44849487 43.40156982 16.9777832 42.32080078 C20.68200325 35.32772512 26.7800521 30.4254195 34.07421875 27.4453125 C42.75786395 24.94920396 51.81903605 25.66161871 60.06640625 29.265625 C65.34551575 32.39980735 69.47246738 36.27404324 73.06640625 41.265625 C73.45957031 41.7915625 73.85273437 42.3175 74.2578125 42.859375 C78.81674925 50.10284245 78.20006065 60.15411816 76.40625 68.2421875 C73.1826171 77.25719553 66.6799325 84.16631675 58.06640625 88.265625 C50.08006266 91.34722424 41.27320253 91.33214214 33.29296875 88.30078125 C25.9328223 84.87895878 20.08179795 80.42750397 16.06640625 73.265625 C15.35764922 71.28015077 14.68216596 69.28188005 14.06640625 67.265625 C14.05182373 67.82548096 14.03724121 68.38533691 14.0222168 68.9621582 C13.94769273 71.50150637 13.85105044 74.03954578 13.75390625 76.578125 C13.73134766 77.45919922 13.70878906 78.34027344 13.68554688 79.24804688 C13.65009766 80.09560547 13.61464844 80.94316406 13.578125 81.81640625 C13.55194092 82.59669189 13.52575684 83.37697754 13.4987793 84.1809082 C12.95672297 86.79447061 12.21750564 87.7081971 10.06640625 89.265625 C7.1790464 89.45792142 4.5041962 89.50167734 1.62890625 89.390625 C0.10949828 89.34703017 -1.41004326 89.30782458 -2.9296875 89.2734375 C-3.60185303 89.24910645 -4.27401855 89.22477539 -4.96655273 89.19970703 C-7.08476228 89.27069084 -8.89324831 89.71194489 -10.93359375 90.265625 C-20.60565193 91.13427271 -28.53739556 89.12207733 -36.14453125 83 C-41.13264888 78.16435759 -43.16162182 72.89854695 -44.93359375 66.265625 C-44.95341309 66.89130371 -44.97323242 67.51698242 -44.99365234 68.16162109 C-45.08873601 70.98839019 -45.19848121 73.81440315 -45.30859375 76.640625 C-45.355 78.11789063 -45.355 78.11789063 -45.40234375 79.625 C-45.44101562 80.56601563 -45.4796875 81.50703125 -45.51953125 82.4765625 C-45.55095215 83.34587402 -45.58237305 84.21518555 -45.61474609 85.11083984 C-45.93359375 87.265625 -45.93359375 87.265625 -47.93359375 89.265625 C-50.8671875 89.56640625 -50.8671875 89.56640625 -54.37109375 89.578125 C-56.10166016 89.60326172 -56.10166016 89.60326172 -57.8671875 89.62890625 C-60.93359375 89.265625 -60.93359375 89.265625 -62.60119629 87.98498535 C-64.93177756 84.97754264 -64.35318078 81.20282257 -64.33984375 77.546875 C-64.35067993 76.69258911 -64.36151611 75.83830322 -64.37268066 74.95812988 C-64.41859653 71.30205813 -64.43003177 67.64605466 -64.44482422 63.98974609 C-64.4604974 61.32103028 -64.49349472 58.65291203 -64.52734375 55.984375 C-64.52281189 54.74210144 -64.52281189 54.74210144 -64.51818848 53.47473145 C-64.46063632 49.24897398 -64.46063632 49.24897398 -66.21154785 45.54699707 C-68.63241197 43.74563529 -70.96018065 43.90115579 -73.8984375 43.8671875 C-76.77728121 44.4307999 -77.89726505 45.10555018 -79.93359375 47.265625 C-80.32250148 50.28847273 -80.46736899 52.96122884 -80.4375 55.984375 C-80.44692123 56.83866089 -80.45634247 57.69294678 -80.46604919 58.57312012 C-80.49475127 61.30419863 -80.49777524 64.03440764 -80.49609375 66.765625 C-80.49969677 69.49671545 -80.50917809 72.22717229 -80.53684998 74.95812988 C-80.55368793 76.65751095 -80.55647523 78.35710105 -80.5438385 80.05651855 C-80.59537996 85.82886 -80.59537996 85.82886 -82.26499939 87.98498535 C-84.8837359 89.99485539 -87.26047513 89.62512281 -90.49609375 89.578125 C-91.65238281 89.57425781 -92.80867187 89.57039063 -94 89.56640625 C-96.93359375 89.265625 -96.93359375 89.265625 -98.93359375 87.265625 C-99.19429016 84.83666992 -99.19429016 84.83666992 -99.20825195 81.74609375 C-99.21778397 80.59149658 -99.22731598 79.43689941 -99.23713684 78.24731445 C-99.23622543 76.99523193 -99.23531403 75.74314941 -99.234375 74.453125 C-99.23866013 73.17332764 -99.24294525 71.89353027 -99.24736023 70.57495117 C-99.25482616 67.864704 -99.25452828 65.15458709 -99.24926758 62.44433594 C-99.24346834 58.96703277 -99.26041225 55.49026145 -99.28361225 52.01304626 C-99.30186356 48.70138294 -99.29816497 45.38983844 -99.296875 42.078125 C-99.30608475 40.82604248 -99.31529449 39.57395996 -99.32478333 38.28393555 C-99.31855453 37.12933838 -99.31232574 35.97474121 -99.3059082 34.78515625 C-99.30653763 33.76526611 -99.30716705 32.74537598 -99.30781555 31.69458008 C-99.18432236 30.8930249 -99.06082916 30.09146973 -98.93359375 29.265625 C-95.4827538 26.96506503 -94.06183647 26.99552244 -89.99609375 27.015625 C-88.43568359 27.00789063 -88.43568359 27.00789063 -86.84375 27 C-83.93359375 27.265625 -83.93359375 27.265625 -81.8046875 28.40625 C-81.18722656 28.68984375 -80.56976562 28.9734375 -79.93359375 29.265625 C-78.58972892 28.62045096 -77.25848431 27.94891646 -75.93359375 27.265625 C-68.26088578 26.47676433 -59.83534223 25.7013017 -53.4765625 30.7265625 C-47.83132009 36.35751316 -45.99974351 41.35702155 -44.93359375 49.265625 C-44.70285156 48.61335938 -44.47210937 47.96109375 -44.234375 47.2890625 C-40.51089346 37.31072066 -35.4559053 32.01903906 -25.93359375 27.265625 C-22.79626977 26.22192118 -19.8556545 26.10121366 -16.55859375 26.078125 C-15.64335938 26.06394531 -14.728125 26.04976562 -13.78515625 26.03515625 C-10.58429218 26.29385622 -7.95527132 27.21020777 -4.93359375 28.265625 C-4.94406738 27.48848145 -4.95454102 26.71133789 -4.96533203 25.91064453 C-5.00679657 22.404004 -5.03288953 18.89741494 -5.05859375 15.390625 C-5.07535156 14.16730469 -5.09210938 12.94398437 -5.109375 11.68359375 C-5.11582031 10.51699219 -5.12226562 9.35039063 -5.12890625 8.1484375 C-5.13937988 7.06965332 -5.14985352 5.99086914 -5.16064453 4.87939453 C-4.8249497 1.01493341 -3.80952951 0.34493743 0 0 Z " fill="#FEFDFC" transform="translate(692.93359375,28.734375)"/>
<path d="M0 0 C1.084021 0.00523682 2.16804199 0.01047363 3.28491211 0.01586914 C5.03964844 0.02070312 5.03964844 0.02070312 6.82983398 0.02563477 C8.67738281 0.03820313 8.67738281 0.03820313 10.56225586 0.05102539 C12.41560547 0.05779297 12.41560547 0.05779297 14.30639648 0.06469727 C17.37089703 0.07652931 20.43530307 0.09301366 23.49975586 0.11352539 C23.68078857 0.65734863 23.86182129 1.20117188 24.04833984 1.76147461 C25.37257598 5.73716073 26.69971445 9.71181853 28.03491211 13.68383789 C28.54402669 15.20206706 29.05314128 16.72029622 29.56225586 18.23852539 C29.81813477 18.9977832 30.07401367 19.75704102 30.33764648 20.53930664 C34.49975586 32.97213722 34.49975586 32.97213722 34.49975586 38.11352539 C35.15975586 38.11352539 35.81975586 38.11352539 36.49975586 38.11352539 C36.70729492 37.21375977 36.91483398 36.31399414 37.12866211 35.38696289 C39.96646766 23.42899386 43.67106934 11.78682258 47.49975586 0.11352539 C51.64557473 0.08465788 55.79136802 0.06677212 59.93725586 0.05102539 C61.12125977 0.04264648 62.30526367 0.03426758 63.52514648 0.02563477 C64.64985352 0.02241211 65.77456055 0.01918945 66.93334961 0.01586914 C67.97547607 0.01063232 69.01760254 0.00539551 70.09130859 0 C72.49975586 0.11352539 72.49975586 0.11352539 73.49975586 1.11352539 C73.59385065 3.13846771 73.61718708 5.16672409 73.61328125 7.19384766 C73.61316795 9.14575768 73.61316795 9.14575768 73.61305237 11.13710022 C73.60794495 12.56804441 73.60272894 13.99898821 73.59741211 15.42993164 C73.59554789 16.88581799 73.59412401 18.34170496 73.59312439 19.79759216 C73.58929951 23.63631918 73.5794695 27.47500858 73.56842041 31.3137207 C73.55820563 35.22810355 73.55362663 39.14249245 73.54858398 43.05688477 C73.53784719 50.7424508 73.52025065 58.42797804 73.49975586 66.11352539 C67.88975586 66.11352539 62.27975586 66.11352539 56.49975586 66.11352539 C56.16975586 53.24352539 55.83975586 40.37352539 55.49975586 27.11352539 C54.40663086 30.68165039 53.31350586 34.24977539 52.18725586 37.92602539 C51.84911865 39.02664307 51.51098145 40.12726074 51.16259766 41.26123047 C49.40138314 47.02991302 47.74071877 52.81005012 46.22167969 58.64746094 C45.47746005 61.18968704 44.48354 63.65406505 43.49975586 66.11352539 C37.88975586 66.11352539 32.27975586 66.11352539 26.49975586 66.11352539 C22.26360895 53.90345489 18.83555522 41.6033788 15.49975586 29.11352539 C15.16975586 41.32352539 14.83975586 53.53352539 14.49975586 66.11352539 C8.88975586 66.11352539 3.27975586 66.11352539 -2.50024414 66.11352539 C-4.30286936 64.31090017 -3.62793117 61.56975529 -3.62963867 59.14086914 C-3.63279083 57.86284424 -3.63594299 56.58481934 -3.63919067 55.26806641 C-3.63740089 53.86238572 -3.63534994 52.45670535 -3.63305664 51.05102539 C-3.63372972 49.61995426 -3.63469978 48.18888324 -3.63595581 46.7578125 C-3.63743258 43.75495315 -3.6352789 40.75212349 -3.63061523 37.74926758 C-3.62491795 33.89199968 -3.62819706 30.03480135 -3.6341877 26.17753601 C-3.63779388 23.22138948 -3.63665446 20.26525957 -3.63405991 17.30911255 C-3.63339079 15.8864847 -3.63421851 14.46385536 -3.63653946 13.04122925 C-3.63906688 11.05621366 -3.63453457 9.0711928 -3.62963867 7.08618164 C-3.62884308 5.95446533 -3.62804749 4.82274902 -3.62722778 3.65673828 C-3.45757533 0.25895973 -3.39576951 0.15418737 0 0 Z " fill="#FAFBFD" transform="translate(469.500244140625,50.886474609375)"/>
<path d="M0 0 C3.15645078 0.26303757 4.69480838 0.72255307 7.0625 2.875 C9.81431052 7.31340406 11.37233085 12.05638785 13 17 C13.33 16.34 13.66 15.68 14 15 C16.1875 14.6875 16.1875 14.6875 19 15 C21.8125 17.375 21.8125 17.375 24 20 C24 20.66 24 21.32 24 22 C25.485 22.495 25.485 22.495 27 23 C27 23.66 27 24.32 27 25 C28.32 25.66 29.64 26.32 31 27 C31 27.66 31 28.32 31 29 C32.485 29.495 32.485 29.495 34 30 C35.54296875 31.56640625 35.54296875 31.56640625 37.1875 33.5625 C40.39229432 37.39178315 43.85893327 40.73319646 47.59375 44.04296875 C49 46 49 46 48.84375 48.61328125 C48 51 48 51 46 53 C46.64066406 53.08636719 47.28132813 53.17273438 47.94140625 53.26171875 C54.26014165 54.28816012 58.06429005 55.92267439 63 60 C62.67 62.31 62.34 64.62 62 67 C61.34 67 60.68 67 60 67 C60 67.66 60 68.32 60 69 C59.34 69 58.68 69 58 69 C57.62875 69.86625 57.62875 69.86625 57.25 70.75 C55.83316683 73.3002997 54.12372463 75.01785701 52 77 C53.11607591 79.60417711 54.03523938 81.03121203 56.1875 82.9375 C56.785625 83.618125 57.38375 84.29875 58 85 C57.75 87.75 57.75 87.75 57 90 C54.9375 90.375 54.9375 90.375 52 90 C49.46427718 88.20822891 47.22825512 86.15761879 45 84 C43.78763672 85.31677734 43.78763672 85.31677734 42.55078125 86.66015625 C41.47216805 87.79504492 40.39269579 88.92911755 39.3125 90.0625 C38.78205078 90.64322266 38.25160156 91.22394531 37.70507812 91.82226562 C36.19606075 93.38682965 34.79999328 94.77961713 33 96 C30.10546875 95.87109375 30.10546875 95.87109375 28 95 C28 94.34 28 93.68 28 93 C27.34 93 26.68 93 26 93 C23.46690767 88.35796103 21.53484401 84.34844008 21 79 C20.34 79.66 19.68 80.32 19 81 C16.16613833 81.3633156 14.59477849 81.3568671 12.125 79.875 C10.44709369 77.07848948 11.25124352 75.06309468 12 72 C13.0828125 72.185625 13.0828125 72.185625 14.1875 72.375 C18.44163217 71.80778238 19.42805988 69.33657097 22 66 C22.66 66 23.32 66 24 66 C24 65.34 24 64.68 24 64 C25.375 62.375 25.375 62.375 27 61 C27.66 61 28.32 61 29 61 C29 60.34 29 59.68 29 59 C30.61974559 57.28769752 32.2958946 55.62836738 34 54 C34.928125 53.071875 35.85625 52.14375 36.8125 51.1875 C37.8953125 50.1046875 37.8953125 50.1046875 39 49 C37.56013005 45.25633814 35.12649698 43.0306886 32.2421875 40.3671875 C31 39 31 39 31 37 C30.4225 36.773125 29.845 36.54625 29.25 36.3125 C26.40408619 34.65238361 25.00158079 32.60812043 23 30 C20.47943955 27.22847788 20.47943955 27.22847788 18 25 C15.76851241 24.77173067 15.76851241 24.77173067 13.92578125 26.94921875 C12.94974462 27.96540085 11.97461435 28.98245372 11 30 C9.60039453 31.40507669 8.19779507 32.80717447 6.79296875 34.20703125 C6.04208984 34.95791016 5.29121094 35.70878906 4.51757812 36.48242188 C1.01171875 39.98828125 -2.49414062 43.49414062 -6 47 C-4.95128513 49.22509937 -4.19746027 50.81772898 -2.375 52.5 C-1 54 -1 54 -1 58 C-0.01 58.33 0.98 58.66 2 59 C2 58.34 2 57.68 2 57 C6.08163265 52.10204082 6.08163265 52.10204082 9.8125 51.6875 C10.534375 51.790625 11.25625 51.89375 12 52 C12.38218767 53.65614657 12.71395102 55.32457024 13 57 C12.67 57.33 12.34 57.66 12 58 C13.65 58.99 15.3 59.98 17 61 C16.875 63.6875 16.875 63.6875 16 67 C13.375 69.375 13.375 69.375 11.71630859 70.61474609 C9.86005949 72.11294772 8.44426186 73.71031078 6.9140625 75.5390625 C1.73879828 81.54794467 -3.97139032 87.01659345 -9.6171875 92.578125 C-14.06652055 96.98688662 -18.38076856 101.42955081 -22.4296875 106.2109375 C-23.20699219 107.09652344 -23.20699219 107.09652344 -24 108 C-24.58555664 108.72670898 -25.17111328 109.45341797 -25.77441406 110.20214844 C-28.83778277 112.67676967 -30.83385471 112.45905518 -34.734375 112.390625 C-36.02988281 112.37773437 -37.32539062 112.36484375 -38.66015625 112.3515625 C-40.02344824 112.31814366 -41.38672949 112.28428391 -42.75 112.25 C-44.12888064 112.22992707 -45.50778912 112.21167767 -46.88671875 112.1953125 C-50.25851744 112.14815448 -53.62890687 112.08234538 -57 112 C-57.30109863 108.53829511 -57.4499582 106.63836264 -55.41113281 103.74584961 C-54.31816895 102.70956421 -54.31816895 102.70956421 -53.203125 101.65234375 C-52.01203125 100.49702148 -52.01203125 100.49702148 -50.796875 99.31835938 C-49.95640625 98.53267578 -49.1159375 97.74699219 -48.25 96.9375 C-46.60733091 95.36541434 -44.96664241 93.79125606 -43.328125 92.21484375 C-42.5949707 91.52511475 -41.86181641 90.83538574 -41.10644531 90.12475586 C-38.87696664 87.87589716 -36.95436448 85.48904669 -35 83 C-33.35407169 81.31284987 -31.68292566 79.65024749 -30 78 C-28.56990786 76.54985823 -27.14170891 75.09784832 -25.71484375 73.64453125 C-24.12251664 72.03373473 -22.53006562 70.42306071 -20.9375 68.8125 C-20.13505859 67.99330078 -19.33261719 67.17410156 -18.50585938 66.33007812 C-17.72919922 65.54697266 -16.95253906 64.76386719 -16.15234375 63.95703125 C-15.45101318 63.24522705 -14.74968262 62.53342285 -14.02709961 61.80004883 C-12.08898681 60.0790196 -10.36691816 59.02359499 -8 58 C-8.5053125 57.56429687 -9.010625 57.12859375 -9.53125 56.6796875 C-14.86592179 51.78957169 -14.86592179 51.78957169 -15.5625 47.6875 C-15 45 -15 45 -13 43 C-13.64066406 42.92523438 -14.28132813 42.85046875 -14.94140625 42.7734375 C-21.56852873 41.76603587 -25.38670603 39.85770689 -30 35 C-29.47470631 30.8911959 -28.33192009 28.74480159 -25.5625 25.6875 C-24.63630859 24.64142578 -24.63630859 24.64142578 -23.69140625 23.57421875 C-22 22 -22 22 -20 22 C-20 21.34 -20 20.68 -20 20 C-19.34 19.34 -18.68 18.68 -18 18 C-18.99 17.13375 -19.98 16.2675 -21 15.375 C-23.53414634 12.87654587 -23.96317186 12.33145329 -24.375 8.625 C-24.189375 7.325625 -24.189375 7.325625 -24 6 C-20.57064214 5.60807339 -19.26875568 5.8144306 -16.375 7.8125 C-14.536868 9.50551632 -12.72089206 11.18853467 -11 13 C-10.67 12.01 -10.34 11.02 -10 10 C-7.17533241 6.86996295 -4.72872563 4.86436281 -1 3 C-0.67 2.01 -0.34 1.02 0 0 Z M1 9 C1 9.66 1 10.32 1 11 C0.34 11 -0.32 11 -1 11 C-1 11.66 -1 12.32 -1 13 C-1.639375 13.268125 -2.27875 13.53625 -2.9375 13.8125 C-5.33131686 14.88667752 -5.33131686 14.88667752 -6 18 C-7.32537819 18.68234513 -8.65993856 19.34696281 -10 20 C-11.82752748 21.76291367 -11.82752748 21.76291367 -13.5 23.8125 C-14.09941406 24.52019531 -14.69882812 25.22789063 -15.31640625 25.95703125 C-17.23559869 28.2858889 -19.14207754 30.62185925 -21 33 C-17.53619854 35.5978511 -14.56618553 36.65040078 -10.19140625 36.484375 C-4.83972575 35.30147236 -0.4674787 31.74263095 3 27.625 C5.43218907 21.2405037 5.42809452 16.26192799 3 10 C2.34 9.67 1.68 9.34 1 9 Z M31.19921875 68.37890625 C28.93278094 71.44265768 28.81066189 73.60385277 28.75 77.375 C28.72421875 78.33148438 28.6984375 79.28796875 28.671875 80.2734375 C29.04560086 83.37892147 29.93373709 84.70536066 32 87 C34.34138543 84.71643754 36.67166982 82.42186626 39 80.125 C39.66773437 79.47402344 40.33546875 78.82304688 41.0234375 78.15234375 C41.65507813 77.52714844 42.28671875 76.90195313 42.9375 76.2578125 C43.81728516 75.39373779 43.81728516 75.39373779 44.71484375 74.51220703 C46.21586138 73.07675859 46.21586138 73.07675859 46 71 C46.639375 70.731875 47.27875 70.46375 47.9375 70.1875 C50.33131686 69.11332248 50.33131686 69.11332248 51 66 C51.66 66 52.32 66 53 66 C53 65.34 53 64.68 53 64 C53.66 63.67 54.32 63.34 55 63 C45.21754168 57.27368293 37.96688727 60.11915333 31.19921875 68.37890625 Z M-24 82 C-24.76699219 82.85851562 -25.53398438 83.71703125 -26.32421875 84.6015625 C-27.40379359 85.81462057 -28.46996002 87.04012137 -29.5078125 88.2890625 C-31.56060609 90.64278919 -33.77717939 92.80664241 -36 95 C-37.7720502 96.74876779 -39.54290073 98.49875213 -41.3125 100.25 C-42.19550781 101.12140625 -43.07851563 101.9928125 -43.98828125 102.890625 C-46.11502616 104.63479805 -46.11502616 104.63479805 -46 106 C-37.61757819 107.05718135 -37.61757819 107.05718135 -29.91015625 104.6171875 C-28.42108773 102.86742529 -28.42108773 102.86742529 -27.30859375 101.01953125 C-25.54373068 98.29584705 -23.31544449 96.27694111 -21 94 C-20.01459048 93.02113922 -19.02983073 92.04162399 -18.0456543 91.06152344 C-17.5254924 90.54458923 -17.00533051 90.02765503 -16.46940613 89.49505615 C-14.14925217 87.18830852 -11.8317816 84.87887261 -9.5144043 82.56933594 C-8.28839259 81.34840326 -7.06149248 80.12836209 -5.83374023 78.90917969 C-4.05740786 77.14489585 -2.28425375 75.37747286 -0.51171875 73.609375 C0.04131424 73.0615033 0.59434723 72.51363159 1.16413879 71.94915771 C2.4618765 70.65161433 3.73388058 69.32841394 5 68 C5 67.67 5 67.34 5 67 C-9.51063335 63.9816094 -15.2493522 71.71448803 -24 82 Z " fill="#0D59A4" transform="translate(61,23)"/>
<path d="M0 0 C7.03921546 3.97814817 10.98873379 9.26219332 14.109375 16.61328125 C16.74365914 26.63049332 16.62455454 40.30542189 12.31640625 49.77734375 C7.94228446 57.16273039 2.47285499 62.7474605 -6 65 C-15.03054488 66.18736464 -25.03608016 66.56373397 -32.9921875 61.6015625 C-39.95195879 56.04999396 -44.29032426 49.83332468 -46 41 C-47.13435212 29.00369125 -46.97750244 17.36561673 -39.9375 7.1875 C-30.32937893 -4.38731537 -13.20789785 -5.99330981 0 0 Z " fill="#FBFCFD" transform="translate(447,53)"/>
<path d="M0 0 C0.33 0 0.66 0 1 0 C1.33 15.18 1.66 30.36 2 46 C3.32 43.36 4.64 40.72 6 38 C10.77308964 31.18130052 17.59256195 25.84373067 25.91015625 24.24609375 C35.48872073 23.11815064 44.2980355 24.08358635 52.3125 29.8125 C55.67612434 32.56701731 58.44964059 35.45783415 61 39 C61.39316406 39.5259375 61.78632812 40.051875 62.19140625 40.59375 C66.750343 47.83721745 66.1336544 57.88849316 64.33984375 65.9765625 C61.11621085 74.99157053 54.61352625 81.90069175 46 86 C38.01365641 89.08159924 29.20679628 89.06651714 21.2265625 86.03515625 C13.86641605 82.61333378 8.0153917 78.16187897 4 71 C3.01 68.03 3.01 68.03 2 65 C1.67 71.27 1.34 77.54 1 84 C0.67 84 0.34 84 0 84 C0 56.28 0 28.56 0 0 Z " fill="#FEFCFA" transform="translate(705,31)"/>
<path d="M0 0 C0.79792969 0.00386719 1.59585937 0.00773437 2.41796875 0.01171875 C3.21589844 0.00785156 4.01382812 0.00398438 4.8359375 0 C10.79136108 0.01011108 10.79136108 0.01011108 11.91796875 1.13671875 C12.07451902 2.62310867 12.16863818 4.11621002 12.234375 5.609375 C12.27626953 6.50849609 12.31816406 7.40761719 12.36132812 8.33398438 C12.40064453 9.27951172 12.43996094 10.22503906 12.48046875 11.19921875 C12.52365234 12.14861328 12.56683594 13.09800781 12.61132812 14.07617188 C12.71776151 16.42953228 12.81977883 18.78300229 12.91796875 21.13671875 C14.69130047 18.57593955 16.46117924 16.01279208 18.23046875 13.44921875 C18.72998047 12.72798828 19.22949219 12.00675781 19.74414062 11.26367188 C20.23076172 10.55791016 20.71738281 9.85214844 21.21875 9.125 C21.70126221 8.43962158 22.18377441 7.75424316 22.6809082 7.0480957 C24.07048763 5.03809994 24.07048763 5.03809994 25.10546875 2.13671875 C26.91796875 0.13671875 26.91796875 0.13671875 29.11206055 -0.2434082 C31.96110021 -0.3578451 34.75691166 -0.29799657 37.60546875 -0.17578125 C38.59353516 -0.15322266 39.58160156 -0.13066406 40.59960938 -0.10742188 C43.04058434 -0.04846113 45.47851743 0.03376827 47.91796875 0.13671875 C47.30560884 3.26391178 46.28852799 5.34430846 44.44140625 7.9296875 C43.93818848 8.63834961 43.4349707 9.34701172 42.91650391 10.07714844 C42.112854 11.18944824 42.112854 11.18944824 41.29296875 12.32421875 C40.75333496 13.08508789 40.21370117 13.84595703 39.65771484 14.62988281 C36.26809436 19.37880304 32.75081484 23.94699841 28.83203125 28.27734375 C27.67701925 30.14011098 27.67701925 30.14011098 28.40234375 32.36328125 C30.50391736 36.20894429 32.97969713 39.71178473 35.54296875 43.26171875 C36.07696289 44.01146973 36.61095703 44.7612207 37.16113281 45.53369141 C39.57147361 48.91005274 42.00364011 52.26774986 44.48828125 55.58984375 C45.20757812 56.5540625 45.926875 57.51828125 46.66796875 58.51171875 C47.3021875 59.34445313 47.93640625 60.1771875 48.58984375 61.03515625 C49.91796875 63.13671875 49.91796875 63.13671875 49.91796875 66.13671875 C30.48201677 68.09234859 30.48201677 68.09234859 24.921875 63.8515625 C22.90141388 60.70094405 21.40374189 57.56936704 19.91796875 54.13671875 C18.61866303 52.03199544 17.2869106 49.94682889 15.91796875 47.88671875 C14.9166236 46.30423579 13.91609039 44.72123686 12.91796875 43.13671875 C12.8929126 43.79792725 12.86785645 44.45913574 12.84204102 45.14038086 C12.72643773 48.1185418 12.60355121 51.09635795 12.48046875 54.07421875 C12.44115234 55.11513672 12.40183594 56.15605469 12.36132812 57.22851562 C12.31943359 58.21787109 12.27753906 59.20722656 12.234375 60.2265625 C12.19771729 61.14300537 12.16105957 62.05944824 12.12329102 63.00366211 C11.91796875 65.13671875 11.91796875 65.13671875 10.91796875 66.13671875 C8.07461827 66.2365885 5.26099712 66.27549756 2.41796875 66.26171875 C1.62003906 66.26558594 0.82210938 66.26945312 0 66.2734375 C-5.95542358 66.26332642 -5.95542358 66.26332642 -7.08203125 65.13671875 C-7.18133658 63.14784381 -7.21002587 61.15541458 -7.21142578 59.1640625 C-7.21457794 57.8860376 -7.2177301 56.6080127 -7.22097778 55.29125977 C-7.219188 53.88557908 -7.21713705 52.4798987 -7.21484375 51.07421875 C-7.21551683 49.64314762 -7.21648689 48.2120766 -7.21774292 46.78100586 C-7.21921969 43.77814651 -7.21706601 40.77531685 -7.21240234 37.77246094 C-7.20670506 33.91519304 -7.20998417 30.05799471 -7.21597481 26.20072937 C-7.21958099 23.24458284 -7.21844157 20.28845292 -7.21584702 17.33230591 C-7.2151779 15.90967806 -7.21600562 14.48704872 -7.21832657 13.06442261 C-7.22085399 11.07940701 -7.21632167 9.09438616 -7.21142578 7.109375 C-7.21063019 5.97765869 -7.20983459 4.84594238 -7.20901489 3.67993164 C-6.96594032 -1.18833632 -4.23999137 0.00719863 0 0 Z " fill="#F6F9FB" transform="translate(350.08203125,50.86328125)"/>
<path d="M0 0 C6.93 0 13.86 0 21 0 C24.33965981 7.69133775 27.2535147 15.42501122 29.97509766 23.35058594 C31.87900081 28.86752008 33.85756891 34.35145993 35.89453125 39.8203125 C36.1451532 40.49504608 36.39577515 41.16977966 36.6539917 41.86495972 C37.66444334 44.58448134 38.67502846 47.30385786 39.69854736 50.01849365 C40.41796235 51.92693765 41.12950546 53.83816262 41.83984375 55.75 C42.46427368 57.41289063 42.46427368 57.41289063 43.10131836 59.109375 C44 62 44 62 44 66 C37.73 66 31.46 66 25 66 C21 55.25 21 55.25 21 53 C10.605 53.495 10.605 53.495 0 54 C-1.32 57.96 -2.64 61.92 -4 66 C-9.94 66 -15.88 66 -22 66 C-21.31597348 60.52778787 -20.86658552 56.97858998 -19.06640625 52.078125 C-18.66929443 50.98290527 -18.27218262 49.88768555 -17.86303711 48.75927734 C-17.43385986 47.60121582 -17.00468262 46.4431543 -16.5625 45.25 C-15.8898258 43.40325505 -15.21716659 41.55650448 -14.54536438 39.70944214 C-13.8441241 37.78426622 -13.13940816 35.86038474 -12.43457031 33.93652344 C-10.98415001 29.96795396 -9.56272466 25.98938123 -8.1484375 22.0078125 C-7.91948288 21.36356323 -7.69052826 20.71931396 -7.45463562 20.05554199 C-6.78199856 18.16211981 -6.10974615 16.268561 -5.4375 14.375 C-4.60427554 12.02814441 -3.7697591 9.68174688 -2.93359375 7.3359375 C-2.58353271 6.35157715 -2.23347168 5.3672168 -1.87280273 4.35302734 C-1 2 -1 2 0 0 Z " fill="#F9FBFC" transform="translate(258,51)"/>
<path d="M0 0 C1.56041016 -0.00773437 1.56041016 -0.00773437 3.15234375 -0.015625 C6.0625 0.25 6.0625 0.25 8.19140625 1.390625 C8.80886719 1.67421875 9.42632813 1.9578125 10.0625 2.25 C11.40636483 1.60482596 12.73760944 0.93329146 14.0625 0.25 C21.7483294 -0.54020973 30.11397687 -1.28759761 36.515625 3.68359375 C41.15380687 8.38033853 44.17510879 12.94998046 44.20776367 19.68969727 C44.21414352 20.58394913 44.22052338 21.47820099 44.22709656 22.39955139 C44.22820938 23.36211349 44.2293222 24.3246756 44.23046875 25.31640625 C44.23546135 26.801157 44.23546135 26.801157 44.24055481 28.31590271 C44.24561743 30.40810684 44.24796334 32.50031905 44.24780273 34.5925293 C44.24999376 37.80335654 44.26816898 41.01384274 44.28710938 44.22460938 C44.29004245 46.25520715 44.29202782 48.28580657 44.29296875 50.31640625 C44.30015427 51.28099258 44.30733978 52.24557892 44.31474304 53.23939514 C44.31166641 54.13049484 44.30858978 55.02159454 44.30541992 55.93969727 C44.30684494 56.72562759 44.30826996 57.51155792 44.30973816 58.32130432 C44.0625 60.25 44.0625 60.25 42.0625 62.25 C39.12890625 62.55078125 39.12890625 62.55078125 35.625 62.5625 C33.89443359 62.58763672 33.89443359 62.58763672 32.12890625 62.61328125 C29.0625 62.25 29.0625 62.25 27.39489746 60.96936035 C25.06431619 57.96191764 25.64291297 54.18719757 25.65625 50.53125 C25.64541382 49.67696411 25.63457764 48.82267822 25.62341309 47.94250488 C25.57749722 44.28643313 25.56606198 40.63042966 25.55126953 36.97412109 C25.53559635 34.30540528 25.50259903 31.63728703 25.46875 28.96875 C25.47328186 27.72647644 25.47328186 27.72647644 25.47790527 26.45910645 C25.53545743 22.23334898 25.53545743 22.23334898 23.7845459 18.53137207 C21.36368178 16.73001029 19.0359131 16.88553079 16.09765625 16.8515625 C13.21881254 17.4151749 12.0988287 18.08992518 10.0625 20.25 C9.67359227 23.27284773 9.52872476 25.94560384 9.55859375 28.96875 C9.54917252 29.82303589 9.53975128 30.67732178 9.53004456 31.55749512 C9.50134248 34.28857363 9.49831851 37.01878264 9.5 39.75 C9.49639698 42.48109045 9.48691566 45.21154729 9.45924377 47.94250488 C9.44240582 49.64188595 9.43961852 51.34147605 9.45225525 53.04089355 C9.40071379 58.813235 9.40071379 58.813235 7.73109436 60.96936035 C5.11235785 62.97923039 2.73561862 62.60949781 -0.5 62.5625 C-1.65628906 62.55863281 -2.81257812 62.55476563 -4.00390625 62.55078125 C-6.9375 62.25 -6.9375 62.25 -8.9375 60.25 C-9.19819641 57.82104492 -9.19819641 57.82104492 -9.2121582 54.73046875 C-9.22169022 53.57587158 -9.23122223 52.42127441 -9.24104309 51.23168945 C-9.24013168 49.97960693 -9.23922028 48.72752441 -9.23828125 47.4375 C-9.24256638 46.15770264 -9.2468515 44.87790527 -9.25126648 43.55932617 C-9.25873241 40.849079 -9.25843453 38.13896209 -9.25317383 35.42871094 C-9.24737459 31.95140777 -9.2643185 28.47463645 -9.2875185 24.99742126 C-9.30576981 21.68575794 -9.30207122 18.37421344 -9.30078125 15.0625 C-9.309991 13.81041748 -9.31920074 12.55833496 -9.32868958 11.26831055 C-9.32246078 10.11371338 -9.31623199 8.95911621 -9.30981445 7.76953125 C-9.31044388 6.74964111 -9.3110733 5.72975098 -9.3117218 4.67895508 C-9.18822861 3.8773999 -9.06473541 3.07584473 -8.9375 2.25 C-5.48666005 -0.05055997 -4.06574272 -0.02010256 0 0 Z " fill="#FEFDFB" transform="translate(602.9375,55.75)"/>
<path d="M0 0 C0.88420873 3.63508033 1.0075079 6.60410083 0.5625 10.3125 C0.46066406 11.19550781 0.35882813 12.07851562 0.25390625 12.98828125 C0.17011719 13.65214844 0.08632812 14.31601563 0 15 C-3 16 -3 16 -5.5 15.0625 C-10.29697268 13.60627615 -15.01727638 13.4680923 -20 14 C-20.99 14.66 -21.98 15.32 -23 16 C-22.80528889 17.94999129 -22.80528889 17.94999129 -22 20 C-20.23470405 21.21690533 -20.23470405 21.21690533 -18 22 C-17.19046875 22.33 -16.3809375 22.66 -15.546875 23 C-14.70640625 23.33 -13.8659375 23.66 -13 24 C-1.29650092 28.83241252 -1.29650092 28.83241252 2.8125 34.5 C5.23816204 41.64931971 5.03195191 48.61580809 1.875 55.5 C-0.99006342 60.53605514 -4.23579586 62.8262764 -9.5390625 65.078125 C-14.21675587 66.32410202 -18.61906624 66.29051941 -23.4375 66.25 C-24.81131836 66.26160156 -24.81131836 66.26160156 -26.21289062 66.2734375 C-27.55963867 66.26957031 -27.55963867 66.26957031 -28.93359375 66.265625 C-30.1410022 66.26224121 -30.1410022 66.26224121 -31.37280273 66.25878906 C-34 66 -34 66 -41 64 C-41 58.72 -41 53.44 -41 48 C-34 49 -34 49 -32 50 C-29.11629667 50.07194869 -26.25760336 50.09291708 -23.375 50.0625 C-22.57320312 50.05798828 -21.77140625 50.05347656 -20.9453125 50.04882812 C-18.96350994 50.03703168 -16.98174567 50.01909605 -15 50 C-15 47.69 -15 45.38 -15 43 C-16.2375 42.62875 -17.475 42.2575 -18.75 41.875 C-27.31567306 38.98815133 -35.95456815 35.82911839 -41 28 C-43.07153537 21.78539389 -43.13339655 14.4411618 -40.375 8.5 C-28.95276965 -3.52340037 -15.68529871 -3.96558342 0 0 Z " fill="#FAFBFD" transform="translate(231,52)"/>
<path d="M0 0 C1.34644592 -0.00472824 1.34644592 -0.00472824 2.72009277 -0.009552 C4.18412537 -0.00651566 4.18412537 -0.00651566 5.67773438 -0.00341797 C6.67276978 -0.00437469 7.66780518 -0.00533142 8.69299316 -0.00631714 C10.80135155 -0.00699907 12.90971203 -0.0051439 15.01806641 -0.00097656 C18.25753465 0.0043715 21.49686423 -0.00092114 24.73632812 -0.00732422 C26.77929718 -0.00666344 28.82226615 -0.00538228 30.86523438 -0.00341797 C31.8412561 -0.0054422 32.81727783 -0.00746643 33.82287598 -0.009552 C34.72050659 -0.00639984 35.61813721 -0.00324768 36.54296875 0 C37.73424377 0.00119339 37.73424377 0.00119339 38.94958496 0.00241089 C40.77148438 0.12939453 40.77148438 0.12939453 41.77148438 1.12939453 C41.91575051 5.79784681 41.81356852 10.45805406 41.77148438 15.12939453 C37.15148437 15.12939453 32.53148437 15.12939453 27.77148438 15.12939453 C27.77672119 16.63880615 27.78195801 18.14821777 27.78735352 19.70336914 C27.80539643 25.28116263 27.81691378 30.85895353 27.82641602 36.43676758 C27.83145787 38.85506625 27.83829116 41.27336187 27.84692383 43.69165039 C27.85899594 47.15918737 27.86471401 50.62668419 27.86914062 54.09423828 C27.87430191 55.18276596 27.8794632 56.27129364 27.88478088 57.39280701 C27.88485641 58.39376907 27.88493195 59.39473114 27.88500977 60.42602539 C27.88723038 61.31204941 27.88945099 62.19807343 27.89173889 63.11094666 C27.77148438 65.12939453 27.77148438 65.12939453 26.77148438 66.12939453 C21.16148437 66.12939453 15.55148437 66.12939453 9.77148438 66.12939453 C9.77148438 49.29939453 9.77148438 32.46939453 9.77148438 15.12939453 C4.82148438 15.12939453 -0.12851562 15.12939453 -5.22851562 15.12939453 C-5.32617188 4.28955078 -5.32617188 4.28955078 -5.22851562 1.12939453 C-3.6694478 -0.42967329 -2.16697281 0.00217082 0 0 Z " fill="#FAFBFD" transform="translate(299.228515625,50.87060546875)"/>
<path d="M0 0 C1.051875 -0.01675781 2.10375 -0.03351562 3.1875 -0.05078125 C6 0.3125 6 0.3125 7.65151978 1.49560547 C9.50042479 3.98675465 9.38065915 5.65935831 9.38818359 8.74609375 C9.39764008 9.85734619 9.40709656 10.96859863 9.4168396 12.11352539 C9.41076691 13.31356201 9.40469421 14.51359863 9.3984375 15.75 C9.40130768 16.98161865 9.40417786 18.2132373 9.40713501 19.48217773 C9.40970158 22.75597957 9.3976161 26.02935537 9.38085938 29.30310059 C9.37500553 31.31060385 9.38083795 33.31771369 9.39111328 35.32519531 C9.4096098 39.17531695 9.40740992 43.02485434 9.3984375 46.875 C9.40754654 48.67505493 9.40754654 48.67505493 9.4168396 50.51147461 C9.40738312 51.62272705 9.39792664 52.73397949 9.38818359 53.87890625 C9.38579681 54.85802979 9.38341003 55.83715332 9.38095093 56.84594727 C9 59.3125 9 59.3125 7.66738892 61.12939453 C5.02671788 63.00309797 2.61639915 62.67117395 -0.5625 62.625 C-1.71878906 62.62113281 -2.87507812 62.61726563 -4.06640625 62.61328125 C-7 62.3125 -7 62.3125 -9 60.3125 C-9.26069641 57.88354492 -9.26069641 57.88354492 -9.2746582 54.79296875 C-9.28419022 53.63837158 -9.29372223 52.48377441 -9.30354309 51.29418945 C-9.30263168 50.04210693 -9.30172028 48.79002441 -9.30078125 47.5 C-9.30506638 46.22020264 -9.3093515 44.94040527 -9.31376648 43.62182617 C-9.32123241 40.911579 -9.32093453 38.20146209 -9.31567383 35.49121094 C-9.30987459 32.01390777 -9.3268185 28.53713645 -9.3500185 25.05992126 C-9.36826981 21.74825794 -9.36457122 18.43671344 -9.36328125 15.125 C-9.372491 13.87291748 -9.38170074 12.62083496 -9.39118958 11.33081055 C-9.38496078 10.17621338 -9.37873199 9.02161621 -9.37231445 7.83203125 C-9.37294388 6.81214111 -9.3735733 5.79225098 -9.3742218 4.74145508 C-9.25072861 3.9398999 -9.12723541 3.13834473 -9 2.3125 C-5.55324591 0.01466394 -4.06671888 0.01495117 0 0 Z " fill="#FEFDFB" transform="translate(581,55.6875)"/>
<path d="M0 0 C0 1.98 0 3.96 0 6 C-0.928125 6.37125 -0.928125 6.37125 -1.875 6.75 C-4.42807424 8.25180838 -4.70447703 9.39696126 -6 12 C-7.40454102 13.61572266 -7.40454102 13.61572266 -9.00390625 15.1640625 C-9.57947266 15.72867187 -10.15503906 16.29328125 -10.74804688 16.875 C-11.34681641 17.4525 -11.94558594 18.03 -12.5625 18.625 C-13.75349384 19.78160151 -14.94240005 20.94035778 -16.12890625 22.1015625 C-16.65556885 22.61025879 -17.18223145 23.11895508 -17.72485352 23.64306641 C-19.1164217 24.99400105 -19.1164217 24.99400105 -20 27 C-20.66 27 -21.32 27 -22 27 C-22 27.66 -22 28.32 -22 29 C-22.66 29 -23.32 29 -24 29 C-24 29.66 -24 30.32 -24 31 C-25.35546875 32.33203125 -25.35546875 32.33203125 -27.1875 33.8125 C-32.22929074 38.0038682 -36.5523677 42.55161069 -40.66796875 47.64453125 C-41.10753906 48.09183594 -41.54710938 48.53914063 -42 49 C-42.66 49 -43.32 49 -44 49 C-44.33 49.99 -44.66 50.98 -45 52 C-46.65 51.67 -48.3 51.34 -50 51 C-50.52679793 47.39801913 -50.1493129 46.20049781 -47.9375 43.23046875 C-46.9715487 42.20355278 -45.99124464 41.19002302 -45 40.1875 C-44.47470703 39.63707031 -43.94941406 39.08664063 -43.40820312 38.51953125 C-38.17874156 33.07847298 -32.81623134 27.75863611 -27.43359375 22.46948242 C-24.6655349 19.73891344 -22.06970558 17.08829373 -19.65625 14.03125 C-19.1096875 13.3609375 -18.563125 12.690625 -18 12 C-17.34 12 -16.68 12 -16 12 C-15.34 10.68 -14.68 9.36 -14 8 C-18.28476144 7.0112089 -21.71931679 6.92048273 -26 8 C-32.13653928 12.19330184 -36.97266887 18.34057906 -41.67675781 24.02685547 C-42.20881836 24.6663916 -42.74087891 25.30592773 -43.2890625 25.96484375 C-43.7629541 26.54741943 -44.2368457 27.12999512 -44.72509766 27.73022461 C-46 29 -46 29 -48 29 C-48 29.66 -48 30.32 -48 31 C-49.375 32.625 -49.375 32.625 -51 34 C-51.66 34 -52.32 34 -53 34 C-53 34.66 -53 35.32 -53 36 C-54.6875 38.1875 -54.6875 38.1875 -57 40 C-59.75 39.75 -59.75 39.75 -62 39 C-62.7109375 37.2265625 -62.7109375 37.2265625 -63 35 C-61.6015625 33.1484375 -61.6015625 33.1484375 -59.625 31.375 C-56.92635145 28.98222341 -56.92635145 28.98222341 -55 26 C-54.34 26 -53.68 26 -53 26 C-52.7522583 25.44731445 -52.5045166 24.89462891 -52.24926758 24.32519531 C-40.23263686 1.95927956 -23.98171872 -3.61978655 0 0 Z " fill="#0D5BA4" transform="translate(152,7)"/>
<path d="M0 0 C3.75452928 2.22687668 6.34229765 4.79897831 8.4375 8.625 C10.08337234 18.50023403 9.68493944 27.68935199 3.875 36.0625 C0.41766169 38.39244538 -1.74542118 38.73866873 -5.8515625 38.47265625 C-9.53411339 37.66249505 -10.88119523 36.05357158 -13 33 C-16.72501695 25.33883153 -17.1498595 17.35262072 -14.875 9.1875 C-12.27611105 2.33809175 -7.62516419 -1.47152291 0 0 Z " fill="#145EA7" transform="translate(435,65)"/>
<path d="M0 0 C4.40608743 2.16298837 7.1987497 4.39680479 9 9 C9.798648 14.2178336 9.77462131 18.53775004 6.75 23 C4.24344985 26.21828662 1.67620611 27.73722842 -2.3671875 28.37109375 C-6.7346323 28.4867426 -9.98636013 28.56264275 -13.5 25.75 C-17.89398257 20.91661917 -18.54718019 17.21186038 -18.4609375 10.76953125 C-17.72897489 6.37155249 -15.37436891 3.7799205 -12 1 C-8.28763586 -0.85618207 -4.05156912 -0.44809981 0 0 Z " fill="#F6862E" transform="translate(743,73)"/>
<path d="M0 0 C0.99 0.66 1.98 1.32 3 2 C3.34057617 4.70556641 3.34057617 4.70556641 3.29296875 8.1015625 C3.28330078 9.31328125 3.27363281 10.525 3.26367188 11.7734375 C3.23853516 13.04445313 3.21339844 14.31546875 3.1875 15.625 C3.16719727 17.543125 3.16719727 17.543125 3.14648438 19.5 C3.11103196 22.66708282 3.06161441 25.83333541 3 29 C-1.97221566 30.65740522 -8.121907 31.36539451 -12.984375 29.05859375 C-16.2009049 26.518809 -18.11901858 23.96441638 -19 20 C-19.55457391 13.9904355 -19.5399503 9.12682458 -16 4 C-11.71178285 -1.09225787 -6.2157976 -0.82749008 0 0 Z " fill="#F68730" transform="translate(685,72)"/>
<path d="M0 0 C3.53182582 0.71530649 5.00284846 1.51469589 7.16015625 4.4375 C8.01085925 9.0100286 8.03645202 12.94049472 5.66015625 17 C2.2069015 18.98562148 -0.86030306 19.6432019 -4.83984375 19.4375 C-7.80203303 18.21398704 -9.2832314 17.20615515 -11.15234375 14.625 C-12.0983123 11.61510008 -12.2805665 9.58551964 -11.83984375 6.4375 C-8.71754334 0.99865413 -6.29812298 -0.50469099 0 0 Z " fill="#FEFBF9" transform="translate(582.83984375,34.5625)"/>
<path d="M0 0 C3.07512368 -0.30469054 4.56110334 -0.30320952 7.14404297 1.48120117 C9.40399174 3.70196768 11.65585536 5.92582175 13.875 8.1875 C14.67164062 8.95642578 15.46828125 9.72535156 16.2890625 10.51757812 C17.03671875 11.26845703 17.784375 12.01933594 18.5546875 12.79296875 C19.24030762 13.4789917 19.92592773 14.16501465 20.63232422 14.87182617 C22 17 22 17 21.71533203 19.76293945 C21.47927246 20.50116943 21.24321289 21.23939941 21 22 C18.02994801 22.2712641 16.47587446 22.32097707 13.96362305 20.62646484 C11.85517231 18.55730856 9.75511351 16.48511137 7.6875 14.375 C6.94693359 13.66214844 6.20636719 12.94929688 5.44335938 12.21484375 C0.11793841 6.86488167 0.11793841 6.86488167 -0.48046875 2.4765625 C-0.32191406 1.65929688 -0.16335937 0.84203125 0 0 Z " fill="#0D59A4" transform="translate(67,60)"/>
<path d="M0 0 C2.17723742 2.17723742 2.41899846 3.00485979 3.0703125 5.9140625 C3.24433594 6.67460938 3.41835938 7.43515625 3.59765625 8.21875 C3.77167969 9.0128125 3.94570313 9.806875 4.125 10.625 C4.30675781 11.42679688 4.48851562 12.22859375 4.67578125 13.0546875 C5.12370789 15.03499476 5.56270604 17.0173177 6 19 C2.37 19 -1.26 19 -5 19 C-4.39297368 12.3227105 -2.22368606 6.29872004 0 0 Z " fill="#1F65AA" transform="translate(268,70)"/>
</svg>
